<?xml version="1.0" standalone="no"?>
<!DOCTYPE svg PUBLIC "-//W3C//DTD SVG 1.1//EN" "http://www.w3.org/Graphics/SVG/1.1/DTD/svg11.dtd" >
<svg xmlns="http://www.w3.org/2000/svg">
<metadata>
Created by FontPrep 20130207 at Fri Jun 24 08:44:07 2016
 By Chameleon
Copyright \(c\) 2002 Agfa Monotype Corporation. All rights reserved. ITC Conduit is designed by Mark van Bronkhorst, MvB Design. ITC Conduit is a trademark of International Typeface Corporation.
</metadata>
<defs>
<font id="dd176b77c3e86c4499d7a30eb2fb2905" horiz-adv-x='1024' >
  <font-face 
    font-family="ConduitITC-Medium"
    font-weight="500"
    font-stretch="normal"
    units-per-em="2048"
    panose-1="0 0 0 0 0 0 0 0 0 0"
    ascent="1638"
    descent="-410"
    x-height="920"
    cap-height="1290"
    bbox="-143 -481.033 1663 1878"
    underline-thickness="122"
    underline-position="-168"
    unicode-range="U+0020-FB02"
  />
<missing-glyph horiz-adv-x="360" 
 />
    <glyph glyph-name=".notdef" horiz-adv-x="360" 
 />
    <glyph glyph-name=".null" horiz-adv-x="0" 
 />
    <glyph glyph-name="nonmarkingreturn" horiz-adv-x="681" 
 />
    <glyph glyph-name="space" unicode=" " horiz-adv-x="360" 
 />
    <glyph glyph-name="exclam" unicode="!" horiz-adv-x="614" 
d="M420 92q0 -47 -33 -80q-33 -32 -80 -32t-80 32t-32 80q0 47 32 80q33 33 80 33t80 -33t33 -80zM336 369h-55q-18 0 -21 18l-45 354v529q0 20 21 20h143q20 0 20 -20v-529l-43 -354q-4 -18 -20 -18z" />
    <glyph glyph-name="quotedbl" unicode="&#x22;" horiz-adv-x="634" 
d="M104 1290h140q20 0 20 -18l-41 -332q-2 -18 -20 -18h-56q-16 0 -20 18l-37 281l-6 51q0 18 20 18zM391 1290h139q21 0 21 -18l-41 -332q-2 -18 -21 -18h-55q-16 0 -20 18l-37 281l-6 51q0 18 20 18z" />
    <glyph glyph-name="numbersign" unicode="#" horiz-adv-x="1148" 
d="M737 741q0 16 -22 17h-230q-18 0 -20 -13l-45 -155q-10 -37 -10 -39q0 -18 22 -19h232q16 0 20 17l43 156q2 6 4 14t4 14t2 8zM1075 909q0 -4 -2 -9t-4 -13t-4 -15l-25 -94q-6 -20 -26 -20h-140q-18 0 -20 -13l-45 -155q-10 -31 -10 -39q0 -18 22 -19h144q16 0 16 -12
q-1 -2 -3 -8t-7 -29l-25 -94q-6 -20 -26 -20h-156q-18 0 -21 -13l-98 -342q-2 -14 -20 -14h-68q-23 0 -22 18q0 4 2 10t4 14q2 9 4 15l71 258q10 31 11 37q0 16 -23 17h-231q-18 0 -21 -13l-96 -342q-2 -14 -20 -14h-68q-23 0 -23 18q0 8 11 39l73 258q2 7 4 15t5 13
q2 5 2 9q0 16 -23 17h-127q-16 0 -16 8t10 43l25 92q6 20 26 20h139q16 0 21 17l45 156q2 6 4 14t4 13t2 9q0 16 -22 17h-144q-16 0 -16 8t10 43l25 92q6 20 26 21h158q16 0 21 16l96 338q2 14 20 14h68q23 0 22 -18q0 -6 -10 -37l-72 -256q-6 -25 -8 -31t-2 -8
q0 -18 23 -18h229q16 0 21 16l98 338q2 14 20 14h68q23 0 23 -18q0 -2 -2 -8t-5 -14q-2 -8 -4 -15l-71 -256l-6 -21t-5 -18q0 -18 23 -18h125q16 -1 16 -13z" />
    <glyph glyph-name="dollar" unicode="$" 
d="M739 335q0 79 -65 130q-66 51 -82 51t-17 -22v-326q0 -20 17 -21q47 1 97 55t50 133zM483 825v289q1 20 -21 20t-56 -28q-68 -53 -68 -134t63 -130q43 -39 66 -39q16 -1 16 22zM575 -102q0 -20 -20 -21h-51q-20 0 -21 21v61q0 20 -14 21q-195 0 -293 126q-47 60 -47 76
t12 23l117 59q20 8 28 8t13 -12q27 -55 73 -86t93 -31q18 0 18 21v397q0 12 -12 19q-72 32 -117 58t-97 71q-105 91 -104 243t85 246t225 109q20 4 20 20v66q0 20 21 20h51q20 0 20 -20v-64q0 -20 17 -20q168 -14 256 -123q49 -60 49 -76t-12 -23l-109 -55q-6 -2 -16 -8
t-19 -6q-7 0 -23 30t-58 63q-42 32 -68 32q-16 0 -17 -23v-360q0 -12 13 -19q76 -35 123 -61t102 -76q111 -99 111 -260q0 -162 -90 -256t-242 -106q-16 -2 -17 -21v-63z" />
    <glyph glyph-name="percent" unicode="%" 
d="M825 184v201q0 25 -16 42t-41 17t-41 -17t-16 -42v-201q0 -25 16 -41t41 -16t41 16t16 41zM336 905v201q0 23 -18 41t-43 18q-23 0 -39 -17t-17 -42v-201q1 -25 17 -41t40 -16t42 17t18 40zM963 184q1 -82 -53 -133t-142 -51t-141 51t-54 133v201q-1 82 53 133t142 51
t141 -51t54 -133v-201zM850 1274q0 -6 -25 -66l-512 -1196q-6 -12 -18 -12h-80q-20 0 -20 16q0 8 16 45l520 1217q6 12 19 12h79q21 0 21 -16zM471 905q0 -82 -52 -133q-51 -51 -141 -51t-143 51t-53 133v199q0 82 53 134t141 52t142 -51t53 -133v-201z" />
    <glyph glyph-name="ampersand" unicode="&#x26;" horiz-adv-x="1269" 
d="M737 271q0 9 -57 78q-56 69 -110 111t-126 85q-30 14 -34 14t-25 -16q-78 -57 -78 -154v-61q0 -76 54 -130t131 -55h61q96 0 164 90q20 29 20 38zM676 922v41q0 76 -54 130t-130 54t-130 -54t-55 -130q0 -106 156 -215q34 -24 74 -7q67 23 103 73t36 108zM1229 2
q0 -20 -21 -20q-68 0 -154 34t-129 74q-43 39 -51 39t-22 -18q-98 -131 -299 -131h-61q-170 0 -270 98q-99 98 -99 266v51q0 61 40 136t89 110q12 10 12 17t-10 18q-131 114 -131 274t99 260q98 100 268 100t270 -100t100 -268v-41q0 -69 -48 -147t-124 -109q-14 -4 -14 -18
q0 -13 18 -25t103 -100q10 -10 19 -10t15 18q35 109 124 168t218 59h37q20 0 21 -20v-144q0 -20 -21 -20h-53q-72 0 -119 -52t-65 -132l-6 -27q-2 -18 12 -33q125 -121 235 -143q16 -4 17 -21v-143z" />
    <glyph glyph-name="quotesingle" unicode="'" horiz-adv-x="348" 
d="M104 1290h140q20 0 20 -18l-41 -332q-2 -18 -20 -18h-56q-16 0 -20 18l-37 281l-6 51q0 18 20 18z" />
    <glyph glyph-name="parenleft" unicode="(" horiz-adv-x="782" 
d="M614 -346q0 -20 -20 -21q-100 0 -188 54q-160 96 -160 313v1126q0 242 190 330q82 37 158 37q20 0 20 -20v-123q0 -16 -16 -21q-76 -12 -122 -63t-46 -119v-1167q0 -68 46 -119t122 -64q16 -4 16 -20v-123z" />
    <glyph glyph-name="parenright" unicode=")" horiz-adv-x="782" 
d="M537 0q0 -217 -160 -313q-88 -53 -189 -54q-20 0 -20 21v123q0 16 16 20q76 11 122 63t46 120v1167q0 68 -46 119t-122 63q-16 4 -16 21v123q0 20 20 20q76 0 158 -37q190 -88 191 -330v-1126z" />
    <glyph glyph-name="asterisk" unicode="*" horiz-adv-x="794" 
d="M449 1186q0 -20 16 -21q6 0 16 6l168 121q5 6 15 6t16 -12l47 -80q10 -14 10 -23t-14 -16l-193 -84q-14 -6 -14 -18t14 -18l193 -82q14 -7 14 -15t-10 -24l-47 -80q-4 -10 -15 -10t-16 4l-170 116q-8 6 -20 6t-13 -20q0 -2 5 -39l14 -119l6 -55q0 -18 -20 -18h-107
q-20 0 -20 18l20 176l4 31v6q0 20 -12 20t-21 -6l-163 -116q-10 -6 -18 -6t-13 12l-47 82q-10 16 -10 24t14 15l188 80q16 6 17 18q0 12 -17 18l-188 84q-14 7 -14 13t10 26l47 80q6 12 14 12t17 -6l161 -121q10 -6 17 -6q16 0 16 21q0 8 -4 41l-12 110l-6 60q0 18 20 18
h107q20 0 20 -18l-18 -170q-4 -37 -4 -41z" />
    <glyph glyph-name="plus" unicode="+" 
d="M952 451q0 -20 -20 -21h-328q-20 0 -20 -20v-328q0 -20 -21 -21h-82q-20 0 -20 21v328q0 20 -21 20h-327q-20 0 -21 21v81q0 20 21 21h327q20 0 21 20v328q0 20 20 21h82q20 0 21 -21v-328q0 -20 20 -20h328q20 0 20 -21v-81z" />
    <glyph glyph-name="comma" unicode="," horiz-adv-x="450" 
d="M338 74q0 -184 -107 -281q-63 -59 -92 -59q-8 0 -16 14l-23 45q-8 17 -8 25t8 14q80 53 80 182q0 18 -20 19h-27q-20 0 -20 20v148q0 20 20 20h184q20 0 21 -20v-127z" />
    <glyph glyph-name="hyphen" unicode="-" horiz-adv-x="552" 
d="M461 389q0 -20 -21 -20h-327q-20 0 -21 20v143q0 20 21 21h327q20 0 21 -21v-143z" />
    <glyph glyph-name="period" unicode="." horiz-adv-x="450" 
d="M354 92q0 -47 -32 -80q-32 -32 -80 -32q-47 0 -80 32t-33 80q0 47 33 80t80 33q48 0 80 -33t32 -80z" />
    <glyph glyph-name="slash" unicode="/" horiz-adv-x="665" 
d="M655 1274q0 -4 -12 -37l-524 -1225q-6 -12 -19 -12h-69q-21 0 -21 12t27 74l510 1192q6 12 18 12h70q20 0 20 -16z" />
    <glyph glyph-name="zero" unicode="0" 
d="M737 328v635q0 76 -54 130t-130 54h-61q-76 0 -130 -54t-55 -130v-635q0 -76 54 -130t131 -55h61q76 1 130 55t54 130zM922 328q0 -156 -100 -252t-269 -96h-61q-168 0 -269 96q-100 96 -100 252v635q0 155 100 251t269 97h61q168 -1 268 -97t101 -251v-635z" />
    <glyph glyph-name="one" unicode="1" 
d="M897 20q0 -20 -20 -20h-635q-20 0 -21 20v123q0 20 21 21h204q20 0 21 20v740q0 23 -16 22q-10 0 -19 -8l-94 -96q-8 -12 -19 -13l-16 11l-88 86q-8 6 -8 13t8 15l324 324q12 12 24 12h68q20 0 20 -20v-1086q0 -20 21 -20h205q20 0 20 -21v-123z" />
    <glyph glyph-name="two" unicode="2" 
d="M907 963q0 -116 -68 -228q-50 -77 -233 -187q-88 -52 -122 -76q-99 -68 -129 -140q-17 -43 -17 -94v-54q0 -20 20 -20h512q20 0 21 -21v-123q0 -20 -21 -20h-696q-20 0 -20 20v218q0 114 49 204t106 138t109 80t85 52q32 20 44 27t40 25t39 28t32 30q21 19 43 57t22 99
t-54 115t-130 54h-78q-115 0 -170 -115q-5 -12 -17 -12t-28 10l-113 57q-12 5 -12 17t29 55q102 152 311 152h78q168 0 268 -96t100 -252z" />
    <glyph glyph-name="three" unicode="3" 
d="M891 344q0 -168 -99 -266t-270 -98h-61q-186 0 -281 112q-59 66 -59 98q0 8 12 15l113 57q20 12 29 12t16 -14q25 -55 71 -86t99 -31h61q76 1 130 55t55 130v71q-1 76 -55 130t-130 55h-164q-20 0 -20 20v123q0 20 20 21h164q76 0 130 54t55 130v31q-1 76 -55 130
t-130 54h-61q-115 0 -170 -115q-5 -12 -15 -12t-34 12l-109 55q-12 7 -12 19t33 59q100 145 307 146h61q170 -1 270 -101t99 -268v-31q0 -59 -39 -128t-90 -103q-10 -4 -10 -13t10 -20q51 -37 90 -109t39 -132v-62z" />
    <glyph glyph-name="four" unicode="4" 
d="M614 481v465q0 25 -18 25q-10 0 -18 -13l-293 -440q-23 -33 -23 -41q0 -16 23 -16h309q20 0 20 20zM625 1290h153q20 0 21 -20v-789q0 -20 20 -20h144q20 0 20 -21v-123q0 -20 -20 -20h-144q-20 0 -20 -21v-256q0 -20 -21 -20h-143q-20 0 -21 20v256q0 20 -20 21h-512
q-20 0 -21 18l5 146l542 821q8 8 17 8z" />
    <glyph glyph-name="five" unicode="5" 
d="M907 344q0 -168 -99 -266t-269 -98h-62q-195 0 -291 124q-49 62 -49 78t13 23l108 55q29 14 36 14t13 -14q25 -55 72 -86t98 -31h62q76 1 130 55t54 130v71q0 76 -54 130t-130 55h-328q-20 0 -21 20v666q0 20 21 20h655q20 0 21 -20v-123q0 -20 -21 -21h-471
q-20 0 -20 -20v-338q0 -20 20 -20h144q170 0 269 -98t99 -267v-39z" />
    <glyph glyph-name="six" unicode="6" 
d="M754 328v82q0 76 -54 130t-131 54h-61q-76 0 -130 -54t-54 -130v-82q0 -76 54 -130t130 -55h61q77 1 131 55t54 130zM938 328q0 -156 -100 -252t-269 -96h-61q-168 0 -268 96t-101 252v635q1 155 101 251t268 97h61q199 0 303 -137q39 -52 39 -66t-12 -21l-108 -55
q-29 -14 -36 -14t-14 14q-53 115 -172 115h-61q-76 0 -130 -54t-54 -130v-250q0 -25 16 -25q4 0 16 8q74 61 172 62h62q148 0 248 -98t100 -250v-82z" />
    <glyph glyph-name="seven" unicode="7" 
d="M895 1053q0 -185 -103 -298q-54 -58 -92 -87t-108 -78q-72 -49 -108 -78t-68 -79t-33 -105v-308q0 -20 -21 -20h-143q-20 0 -20 20v308q0 161 79 250t168 148q88 60 112 78t71 60q80 73 82 189v53q0 20 -21 20h-512q-20 0 -20 21v123q0 20 20 20h696q20 0 21 -20v-217z
" />
    <glyph glyph-name="eight" unicode="8" 
d="M737 328v61q0 76 -54 130t-130 54h-61q-76 0 -130 -54t-55 -130v-61q0 -76 54 -130t131 -55h61q76 1 130 55t54 130zM737 922v41q0 76 -54 130t-130 54h-61q-76 0 -130 -54t-55 -130v-41q0 -76 54 -130t131 -55h61q76 1 130 55t54 130zM922 344q0 -168 -100 -266
t-269 -98h-61q-170 0 -270 98q-99 98 -99 266v51q0 59 39 132t90 110q10 10 10 18t-10 15q-51 36 -90 104t-39 127v41q0 168 100 268t269 101h61q168 -1 268 -101t101 -268v-41q0 -59 -39 -128t-90 -103q-22 -13 0 -33q51 -37 90 -110t39 -132v-51z" />
    <glyph glyph-name="nine" unicode="9" 
d="M721 809v154q0 76 -54 130t-130 54h-62q-76 0 -130 -54t-54 -130v-154q0 -76 54 -130t130 -54h62q76 0 130 54t54 130zM905 328q0 -156 -100 -252t-268 -96h-62q-199 0 -303 137q-39 53 -39 66t12 20l109 55q29 14 36 14t13 -14q53 -115 172 -115h62q76 1 130 55t54 130
v178q0 25 -19 24q-4 0 -16 -8q-74 -61 -170 -61h-61q-147 0 -248 98q-100 98 -101 250v154q0 155 100 251t269 97h62q168 -1 268 -97t100 -251v-635z" />
    <glyph glyph-name="colon" unicode=":" horiz-adv-x="450" 
d="M338 92q0 -47 -33 -80q-33 -32 -80 -32t-80 32t-32 80q0 47 32 80q33 33 80 33t80 -33t33 -80zM338 645q0 -47 -33 -80t-80 -33t-80 33t-32 80q0 47 32 80q33 33 80 33t80 -33t33 -80z" />
    <glyph glyph-name="semicolon" unicode=";" horiz-adv-x="450" 
d="M338 74q0 -184 -107 -281q-63 -59 -92 -59q-8 0 -16 14l-23 45q-8 17 -8 25t8 14q80 53 80 182q0 18 -20 19h-27q-20 0 -20 20v148q0 20 20 20h184q20 0 21 -20v-127zM338 645q0 -47 -33 -80t-80 -33t-80 33t-32 80q0 47 32 80q33 33 80 33t80 -33t33 -80z" />
    <glyph glyph-name="less" unicode="&#x3c;" 
d="M856 145q0 -6 -10 -26l-37 -60q-6 -12 -16 -12l-37 19l-611 352q-10 6 -10 18v117q0 12 10 18l617 359q29 14 31 14q10 0 16 -12l33 -55q12 -21 12 -29t-12 -14l-551 -320q-26 -18 0 -37l553 -319q12 -7 12 -13z" />
    <glyph glyph-name="equal" unicode="=" 
d="M952 266q0 -20 -20 -20h-819q-20 0 -21 20v82q0 20 21 21h819q20 0 20 -21v-82zM952 635q0 -20 -20 -21h-819q-20 0 -21 21v82q0 20 21 20h819q20 0 20 -20v-82z" />
    <glyph glyph-name="greater" unicode="&#x3e;" 
d="M909 436q0 -12 -10 -18l-610 -352l-37 -19q-10 0 -16 12l-37 60l-11 22q0 10 13 17l553 319q14 11 14 19t-14 18l-551 320q-13 6 -13 14t13 29l33 55q6 12 16 12q2 0 31 -14l616 -359q10 -6 10 -18v-117z" />
    <glyph glyph-name="question" unicode="?" 
d="M573 92q-1 -47 -33 -80q-32 -32 -79 -32t-80 32t-33 80q0 47 33 80t80 33t79 -33t33 -80zM504 369h-142q-18 0 -20 16q-8 55 -8 93t7 69t13 51t29 44t30 34t40 30t37 22q4 3 47 24l38 20q49 25 78 44t53 58t24 102t-55 117q-54 54 -130 54h-78q-115 0 -170 -115
q-6 -12 -15 -12t-34 12l-109 55q-12 5 -12 21t47 76q102 127 293 127h78q168 0 268 -96t100 -252q0 -102 -41 -173q-42 -71 -78 -97q-66 -47 -128 -68q-49 -23 -76 -40q-28 -17 -50 -51t-22 -79l6 -68q0 -18 -20 -18z" />
    <glyph glyph-name="at" unicode="@" horiz-adv-x="1445" 
d="M860 584v133q0 55 -40 93t-95 38t-94 -38t-39 -93v-133q0 -56 39 -96t93 -40t95 41q41 40 41 95zM1282 506q0 -84 -54 -136t-147 -53h-24q-86 0 -146 54q-16 16 -39 -2q-64 -51 -166 -51t-175 68q-73 69 -72 183v164q1 113 73 181t193 67q57 0 111 -29q25 -14 24 13
q0 16 19 16h92q20 0 20 -20v-445q-1 -29 19 -48t49 -19h22q29 0 48 20t20 47v416q0 100 -67 162t-177 63h-356q-111 0 -179 -62t-67 -163v-574q0 -100 68 -162t178 -63h534q20 0 21 -20v-93q0 -20 -21 -20h-534q-172 0 -276 99q-103 99 -103 259v574q0 160 103 259t276 99
h356q169 0 273 -99t104 -259v-426z" />
    <glyph glyph-name="A" unicode="A" horiz-adv-x="921" 
d="M590 479q0 2 -12 47l-89 346q-2 8 -12 46t-12 45h-8q-12 -49 -25 -93l-88 -335q-2 -10 -8 -29t-6 -27q0 -18 22 -18h215q23 0 23 18zM920 16q0 -16 -23 -16h-154q-18 0 -20 14l-76 271q-2 12 -20 12h-332q-18 0 -21 -12l-75 -271q-2 -14 -21 -14h-153q-23 0 -23 16
q0 8 21 70l362 1190q2 14 21 14h110q18 0 21 -14l364 -1196q19 -56 19 -64z" />
    <glyph glyph-name="B" unicode="B" horiz-adv-x="1064" 
d="M768 348v41q0 76 -54 130t-130 54h-226q-20 0 -20 -20v-369q0 -20 20 -20h226q76 0 130 54t54 130zM768 922v20q0 76 -54 130t-130 54h-226q-20 0 -20 -20v-348q0 -20 20 -21h226q76 1 130 55t54 130zM952 365q0 -169 -99 -267t-269 -98h-410q-20 0 -20 20v1250
q0 20 20 20h410q170 0 269 -100t99 -268v-21q0 -59 -39 -128t-90 -103q-10 -6 -10 -14t10 -19q51 -37 90 -110t39 -132v-30z" />
    <glyph glyph-name="C" unicode="C" horiz-adv-x="952" 
d="M895 184q0 -14 -45 -73q-102 -131 -297 -131h-61q-168 0 -269 96q-100 96 -100 252v635q0 155 100 251t269 97h61q190 0 291 -123q49 -62 49 -78t-12 -23l-107 -53q-29 -14 -37 -14t-14 12q-57 115 -170 115h-61q-76 0 -130 -54t-55 -130v-635q0 -76 54 -130t131 -55h61
q113 0 172 119q6 12 13 12q8 0 12 -2t11 -6t13 -6l109 -55q12 -7 12 -21z" />
    <glyph glyph-name="D" unicode="D" horiz-adv-x="1075" 
d="M768 348v594q0 76 -54 130t-130 54h-226q-20 0 -20 -20v-922q0 -20 20 -20h226q76 0 130 54t54 130zM952 369q0 -169 -99 -269t-269 -100h-410q-20 0 -20 20v1250q0 20 20 20h410q170 0 269 -100t99 -268v-553z" />
    <glyph glyph-name="E" unicode="E" horiz-adv-x="983" 
d="M891 20q0 -20 -21 -20h-696q-20 0 -20 20v1250q0 20 20 20h696q20 0 21 -20v-123q0 -20 -21 -21h-512q-20 0 -20 -20v-348q0 -20 20 -21h420q20 0 21 -20v-123q0 -20 -21 -21h-420q-20 0 -20 -20v-369q0 -20 20 -20h512q20 0 21 -21v-123z" />
    <glyph glyph-name="F" unicode="F" horiz-adv-x="931" 
d="M891 1147q0 -20 -21 -21h-512q-20 0 -20 -20v-348q0 -20 20 -21h420q20 0 21 -20v-123q0 -20 -21 -21h-420q-20 0 -20 -20v-533q0 -20 -21 -20h-143q-20 0 -20 20v1250q0 20 20 20h696q20 0 21 -20v-123z" />
    <glyph glyph-name="G" unicode="G" 
d="M930 1109q0 -15 -12 -22l-107 -53q-29 -14 -37 -14t-14 12q-57 115 -170 115h-98q-76 0 -130 -54t-55 -130v-635q0 -76 54 -130t131 -55h61q76 1 130 55t54 130v133q0 20 -20 20h-205q-20 0 -20 21v123q0 20 20 20h389q20 0 21 -20v-297q0 -156 -100 -252t-269 -96h-61
q-168 0 -269 96q-100 96 -100 252v635q0 155 100 251t269 97h98q190 0 291 -123q49 -64 49 -79z" />
    <glyph glyph-name="H" unicode="H" horiz-adv-x="1136" 
d="M983 20q0 -20 -20 -20h-144q-20 0 -20 20v533q0 20 -21 20h-420q-20 0 -20 -20v-533q0 -20 -21 -20h-143q-20 0 -20 20v1250q0 20 20 20h143q20 0 21 -20v-512q0 -20 20 -21h420q20 0 21 21v512q0 20 20 20h144q20 0 20 -20v-1250z" />
    <glyph glyph-name="I" unicode="I" horiz-adv-x="491" 
d="M338 20q0 -20 -21 -20h-143q-20 0 -20 20v1250q0 20 20 20h143q20 0 21 -20v-1250z" />
    <glyph glyph-name="J" unicode="J" horiz-adv-x="860" 
d="M737 348q1 -154 -107 -262t-264 -106q-156 0 -284 133q-55 59 -55 73t14 21l104 51q25 14 35 14t17 -12q53 -117 172 -117q76 1 130 55t54 130v942q0 20 20 20h144q20 0 20 -20v-922z" />
    <glyph glyph-name="K" unicode="K" horiz-adv-x="1075" 
d="M1065 16q0 -16 -21 -16h-176q-16 0 -26 16l-348 564q-8 14 -16 14t-21 -14l-101 -127q-18 -20 -18 -52v-381q0 -20 -21 -20h-143q-20 0 -20 20v1250q0 20 20 20h143q20 0 21 -20v-539q0 -25 18 -24q8 0 19 12l430 563q8 8 16 8h170q23 0 23 -16q0 -8 -6 -17l-379 -466
q-17 -19 -17 -29t11 -27l432 -694q10 -17 10 -25z" />
    <glyph glyph-name="L" unicode="L" horiz-adv-x="931" 
d="M891 20q0 -20 -21 -20h-696q-20 0 -20 20v1250q0 20 20 20h143q20 0 21 -20v-1086q0 -20 20 -20h512q20 0 21 -21v-123z" />
    <glyph glyph-name="M" unicode="M" horiz-adv-x="1323" 
d="M1169 20q0 -20 -20 -20h-143q-20 0 -21 20v357q0 254 19 475l-9 2q-20 -78 -49 -143l-231 -514q-6 -12 -19 -13h-69q-12 0 -19 13l-231 514q-27 57 -49 143l-9 -2q18 -221 19 -475v-357q0 -20 -21 -20h-143q-20 0 -20 20v1250q0 20 20 20h131q12 0 19 -12l309 -731
q16 -37 24 -82h7q6 33 26 82l309 731q6 12 19 12h131q20 0 20 -20v-1250z" />
    <glyph glyph-name="N" unicode="N" horiz-adv-x="1136" 
d="M983 20q0 -20 -20 -20h-132q-12 0 -18 10l-436 793q-27 47 -37 74l-8 -3q6 -74 6 -475v-379q0 -20 -21 -20h-143q-20 0 -20 20v1250q0 20 20 20h131q12 0 19 -10l436 -795q25 -41 37 -73l8 2q-6 74 -6 475v381q0 20 20 20h144q20 0 20 -20v-1250z" />
    <glyph glyph-name="O" unicode="O" 
d="M737 328v635q0 76 -54 130t-130 54h-61q-76 0 -130 -54t-55 -130v-635q0 -76 54 -130t131 -55h61q76 1 130 55t54 130zM922 328q0 -156 -100 -252t-269 -96h-61q-168 0 -269 96q-100 96 -100 252v635q0 155 100 251t269 97h61q168 -1 268 -97t101 -251v-635z" />
    <glyph glyph-name="P" unicode="P" horiz-adv-x="993" 
d="M768 922v20q0 76 -54 130t-130 54h-226q-20 0 -20 -20v-348q0 -20 20 -21h226q76 1 130 55t54 130zM952 930q0 -160 -101 -258t-267 -99h-226q-20 0 -20 -20v-533q0 -20 -21 -20h-143q-20 0 -20 20v1250q0 20 20 20h410q168 0 268 -100t100 -260z" />
    <glyph glyph-name="Q" unicode="Q" 
d="M737 328v635q0 76 -54 130t-130 54h-61q-76 0 -130 -54t-55 -130v-635q0 -82 64 -140q35 -31 53 -30q16 0 16 22v84q0 20 21 21h123q20 0 20 -21v-84q0 -23 17 -22q14 0 51 28q65 56 65 142zM922 328q0 -136 -82 -230t-219 -114q-16 -2 -17 -21v-127q0 -20 -20 -20h-123
q-20 0 -21 20v127q0 16 -20 21q-137 20 -217 113t-80 231v635q0 155 100 251t269 97h61q168 -1 268 -97t101 -251v-635z" />
    <glyph glyph-name="R" unicode="R" 
d="M768 922v20q0 76 -54 130t-130 54h-226q-20 0 -20 -20v-348q0 -20 20 -21h226q76 1 130 55t54 130zM965 16q0 -16 -21 -16h-158q-14 0 -18 14l-190 547q-4 12 -17 12h-203q-20 0 -20 -20v-533q0 -20 -21 -20h-143q-20 0 -20 20v1250q0 20 20 20h410q170 0 269 -100
t99 -268v-21q0 -80 -57 -164t-121 -112q-12 -5 -12 -13t16 -53l170 -491q17 -50 17 -52z" />
    <glyph glyph-name="S" unicode="S" horiz-adv-x="950" 
d="M868 328q0 -156 -100 -252t-268 -96h-86q-215 0 -310 149q-28 45 -28 58t10 18l104 53q27 16 37 16t17 -14q26 -55 72 -86t98 -31h86q76 1 130 55t54 130q0 101 -107 168q-42 26 -123 64t-116 55t-88 53t-81 74q-71 93 -71 235q0 141 100 237t269 97h33q211 0 311 -150
q29 -43 29 -55t-13 -19l-110 -55q-25 -12 -33 -12t-14 12q-57 115 -170 115h-33q-76 0 -130 -54t-54 -129q0 -102 134 -167q30 -15 43 -21t86 -39q239 -108 296 -255q26 -68 26 -154z" />
    <glyph glyph-name="T" unicode="T" horiz-adv-x="819" 
d="M778 1147q0 -20 -20 -21h-236q-20 0 -20 -20v-1086q0 -20 -21 -20h-143q-20 0 -21 20v1086q0 20 -20 20h-236q-20 0 -20 21v123q0 20 20 20h697q20 0 20 -20v-123z" />
    <glyph glyph-name="U" unicode="U" 
d="M922 328q0 -156 -100 -252t-269 -96h-61q-168 0 -269 96q-100 96 -100 252v942q0 20 20 20h144q20 0 20 -20v-942q0 -76 54 -130t131 -55h61q76 1 130 55t54 130v942q0 20 21 20h143q20 0 21 -20v-942z" />
    <glyph glyph-name="V" unicode="V" horiz-adv-x="921" 
d="M516 0h-110q-18 0 -21 14l-367 1203q-16 53 -16 57q0 16 23 16h153q18 0 21 -14l235 -854q2 -8 11 -45t10 -39h10q2 4 8 32t12 50l238 856q2 14 20 14h154q23 0 23 -16l-383 -1260q-2 -14 -21 -14z" />
    <glyph glyph-name="W" unicode="W" horiz-adv-x="1366" 
d="M1167 1290h156q20 0 20 -16l-270 -1258q-4 -16 -20 -16h-111q-18 0 -20 14l-213 725q-2 8 -11 46q-8 38 -10 44h-8l-23 -90l-213 -725q-2 -14 -20 -14h-111q-16 0 -20 16l-262 1211q-8 37 -8 47q0 16 20 16h156q16 0 20 -16l148 -768q4 -29 20 -94h10q23 92 234 868
q2 14 20 14h64q18 0 20 -14l211 -776q2 -8 11 -46t12 -46h10l168 862q4 16 20 16z" />
    <glyph glyph-name="X" unicode="X" horiz-adv-x="940" 
d="M907 16q0 -16 -22 -16h-172q-12 0 -19 12l-200 432q-6 16 -18 16t-19 -16l-211 -432q-8 -12 -19 -12h-170q-23 0 -22 16q0 6 22 52l277 540q12 25 12 38t-12 38l-283 551q-16 33 -16 39q0 16 22 16h168q10 0 19 -12l213 -438q6 -16 18 -16t19 16l202 438q6 12 19 12h170
q23 0 22 -16q0 -4 -18 -41l-275 -545q-14 -29 -14 -41t12 -39l275 -547q20 -41 20 -45z" />
    <glyph glyph-name="Y" unicode="Y" horiz-adv-x="921" 
d="M913 1274q0 -4 -18 -41l-328 -612q-14 -29 -14 -64v-537q0 -20 -21 -20h-143q-20 0 -20 20v539q0 35 -15 62l-334 622q-12 25 -12 31q0 16 23 16h168q10 0 18 -12l225 -467q6 -16 18 -16t19 16l226 467q8 12 18 12h168q22 0 22 -16z" />
    <glyph glyph-name="Z" unicode="Z" horiz-adv-x="901" 
d="M819 20q0 -20 -20 -20h-729q-20 0 -21 16q0 4 19 50l450 1005q14 29 14 39q0 16 -20 16h-410q-20 0 -20 21v123q0 20 20 20h686q20 0 20 -12t-17 -53l-451 -1000q-16 -39 -16 -45q0 -16 20 -16h455q20 0 20 -21v-123z" />
    <glyph glyph-name="bracketleft" unicode="[" horiz-adv-x="782" 
d="M614 -348q0 -20 -20 -21h-328q-20 0 -20 21v1823q0 20 20 20h328q20 0 20 -20v-123q0 -20 -20 -21h-143q-20 0 -21 -20v-1495q0 -20 21 -21h143q20 0 20 -20v-123z" />
    <glyph glyph-name="backslash" unicode="\" horiz-adv-x="665" 
d="M655 16q0 -16 -20 -16h-70q-12 0 -18 12l-524 1225q-12 33 -13 37q0 16 21 16h69q12 0 19 -12l510 -1192q26 -62 26 -70z" />
    <glyph glyph-name="bracketright" unicode="]" horiz-adv-x="782" 
d="M537 -348q0 -20 -21 -21h-328q-20 0 -20 21v123q0 20 20 20h144q20 0 20 21v1495q0 20 -20 20h-144q-20 0 -20 21v123q0 20 20 20h328q20 0 21 -20v-1823z" />
    <glyph glyph-name="asciicircum" unicode="^" horiz-adv-x="1538" 
d="M702 942q0 38 6 66t5 34q0 6 -11 21q-66 84 -156 84t-144 -54t-54 -130v-113q0 -20 21 -21h313q20 0 20 21v92zM1071 686q0 -20 -20 -20h-144q-20 0 -20 -21v-625q0 -20 -21 -20h-143q-20 0 -21 20v625q0 20 -20 21h-313q-20 0 -21 -21v-625q0 -20 -20 -20h-144
q-20 0 -20 20v625q0 20 -21 21h-51q-20 0 -20 20v123q0 20 20 20h51q20 0 21 21v92q0 154 108 262t266 107q158 0 257 -90q19 -13 28 -2q96 90 228 90q20 0 20 -21v-123q0 -16 -16 -20q-76 -11 -122 -63t-46 -119v-113q0 -20 20 -21h144q20 0 20 -20v-123zM1419 20
q0 -20 -20 -20h-144q-20 0 -20 20v881q0 20 20 21h144q20 0 20 -21v-881zM1440 1198q0 -47 -33 -80t-80 -33t-80 33t-33 80t33 80t80 33t80 -33t33 -80z" />
    <glyph glyph-name="underscore" unicode="_" horiz-adv-x="450" 
d="M467 -440q0 -20 -21 -21h-430q-20 0 -20 21v51q0 20 20 20h430q20 0 21 -20v-51z" />
    <glyph glyph-name="grave" unicode="`" horiz-adv-x="1024" 
d="M614 1051q0 -16 -20 -17h-70q-23 0 -49 23l-235 231q-16 12 -17 27q0 16 23 16h153q37 0 54 -24l145 -224q16 -26 16 -32z" />
    <glyph glyph-name="a" unicode="a" horiz-adv-x="972" 
d="M655 358q0 20 -20 21h-236q-39 0 -65 -26t-25 -64v-33q0 -39 26 -66t64 -26h80q59 0 113 46q53 46 63 103v45zM840 20q0 -20 -21 -20h-123q-20 0 -20 20v27q0 25 -19 25q-4 0 -16 -9q-78 -63 -162 -63h-80q-117 0 -195 72t-77 184v12q0 115 78 185t194 69h236q20 0 20 21
v57q0 76 -54 128t-132 52q-104 0 -170 -114q-6 -12 -12 -12t-39 16l-103 53q-12 6 -12 19t41 67q98 133 280 133t284 -94q101 -94 102 -248v-580z" />
    <glyph glyph-name="b" unicode="b" horiz-adv-x="972" 
d="M686 348v225q0 76 -54 130q-54 55 -130 55t-130 -54t-55 -131v-225q1 -76 55 -130t130 -54t130 54t54 130zM870 348q0 -156 -100 -252t-268 -96q-98 0 -172 61q-12 8 -17 9q-16 0 -16 -25v-25q0 -20 -21 -20h-122q-20 0 -21 20v1250q0 20 21 20h143q20 0 20 -20v-393
q0 -25 17 -25q4 0 16 8q74 61 172 62q148 0 248 -98t100 -251v-225z" />
    <glyph glyph-name="c" unicode="c" horiz-adv-x="876" 
d="M813 180q0 -18 -59 -86q-100 -114 -276 -114t-275 96q-100 96 -101 252v266q0 156 100 252t280 96q179 0 280 -123q49 -61 49 -77t-12 -23l-107 -53q-29 -14 -37 -14t-14 12q-57 115 -170 114q-76 0 -130 -54t-54 -130v-266q0 -76 54 -130t130 -55q113 0 172 119
q6 12 13 12t28 -10l117 -59q12 -7 12 -25z" />
    <glyph glyph-name="d" unicode="d" horiz-adv-x="972" 
d="M655 348v225q0 76 -54 130q-54 55 -130 55t-130 -54t-54 -131v-225q0 -76 54 -130t130 -54t130 54t54 130zM840 20q0 -20 -21 -20h-123q-20 0 -20 20v25q0 25 -19 25q-4 0 -16 -9q-74 -61 -170 -61q-168 0 -268 96t-101 252v225q0 152 100 250t249 99q96 0 170 -62
q12 -8 16 -8q18 0 18 25v393q0 20 21 20h143q20 0 21 -20v-1250z" />
    <glyph glyph-name="e" unicode="e" horiz-adv-x="942" 
d="M655 594q0 76 -54 130t-130 54t-130 -54t-54 -130q0 -20 20 -21h328q20 1 20 21zM840 451q0 -20 -21 -21h-512q-20 0 -20 -20v-82q0 -76 54 -130t130 -55q113 0 172 119q6 12 13 12t28 -10l117 -59q12 -6 12 -24t-59 -87q-100 -114 -276 -114t-275 96q-100 96 -101 252
v266q0 131 104 240q104 108 265 108q160 0 264 -108t105 -240v-143z" />
    <glyph glyph-name="f" unicode="f" horiz-adv-x="583" 
d="M532 1311q113 0 113 -25q0 -8 -8 -29l-35 -100q-6 -14 -16 -14l-54 4q-76 0 -130 -54t-54 -130v-113q0 -20 21 -21h143q20 0 20 -20v-123q0 -20 -20 -20h-143q-20 0 -21 -21v-625q0 -20 -20 -20h-144q-20 0 -20 20v625q0 20 -21 21h-51q-20 0 -20 20v123q0 20 20 20h51
q20 0 21 21v92q0 154 108 262t260 107z" />
    <glyph glyph-name="g" unicode="g" horiz-adv-x="942" 
d="M748 -205v21q0 36 -28 64t-65 28h-276q-37 0 -65 -28t-27 -64v-21q-1 -37 27 -65t65 -27h276q37 -1 65 27t28 65zM655 555v18q0 76 -54 130q-54 55 -130 55t-130 -54t-54 -131v-18q0 -76 54 -130t130 -54t130 54t54 130zM932 -205q0 -113 -80 -185t-197 -71h-276
q-117 0 -197 72t-80 184v21q0 117 113 196q10 10 10 14t-14 39t-14 73q0 63 22 101q22 39 8 50q-125 100 -125 266v18q0 152 106 250t263 99q96 0 170 -62q12 -8 16 -8q18 0 19 25v24q0 20 20 21h123q20 0 21 -21v-346q0 -152 -106 -250t-263 -98q-27 0 -59 4
q-54 -27 -54 -61t16 -54t40 -24h241q117 0 197 -72t80 -184v-21z" />
    <glyph glyph-name="h" unicode="h" horiz-adv-x="993" 
d="M870 20q0 -20 -20 -20h-143q-20 0 -21 20v553q0 76 -54 130q-54 55 -130 55t-130 -54t-55 -131v-553q0 -20 -20 -20h-143q-20 0 -21 20v1250q0 20 21 20h143q20 0 20 -20v-393q0 -25 17 -25q4 0 16 8q74 61 172 62q150 0 249 -98t99 -251v-553z" />
    <glyph glyph-name="i" unicode="i" horiz-adv-x="450" 
d="M317 20q0 -20 -20 -20h-143q-20 0 -21 20v881q0 20 21 21h143q20 0 20 -21v-881zM338 1198q0 -47 -33 -80t-80 -33t-80 33t-32 80q0 47 32 80q33 33 80 33t80 -33t33 -80z" />
    <glyph glyph-name="j" unicode="j" horiz-adv-x="450" 
d="M317 -115q0 -115 -62 -205t-169 -133q-70 -29 -119 -28q-18 0 -18 20v123q0 16 16 21q76 12 122 63t46 119v1036q0 20 21 21h143q20 0 20 -21v-1016zM338 1198q0 -47 -33 -80t-80 -33t-80 33t-32 80q0 47 32 80q33 33 80 33t80 -33t33 -80z" />
    <glyph glyph-name="k" unicode="k" horiz-adv-x="919" 
d="M909 16q0 -16 -22 -16h-180q-12 0 -19 10l-260 426q-12 25 -33 4l-78 -80v-340q0 -20 -20 -20h-143q-20 0 -21 20v1250q0 20 21 20h143q20 0 20 -20v-639q0 -23 19 -23q8 0 16 8l266 293q8 12 25 13h170q23 0 23 -17q0 -6 -21 -31l-246 -249q-12 -11 -12 -23t10 -27
l328 -528q14 -23 14 -31z" />
    <glyph glyph-name="l" unicode="l" horiz-adv-x="450" 
d="M317 20q0 -20 -20 -20h-143q-20 0 -21 20v1250q0 20 21 20h143q20 0 20 -20v-1250z" />
    <glyph glyph-name="m" unicode="m" horiz-adv-x="1474" 
d="M1341 20q0 -20 -20 -20h-143q-20 0 -21 20v553q0 74 -51 129q-50 56 -110 56t-113 -56t-54 -129v-553q0 -20 -20 -20h-143q-20 0 -21 20v553q0 74 -51 129q-52 56 -112 56t-112 -56t-53 -129v-553q0 -20 -20 -20h-143q-20 0 -21 20v881q0 20 21 21h122q20 0 21 -21v-27
q0 -25 16 -24q4 0 17 8q133 104 295 39q61 -25 98 -68q6 -8 16 -8t17 8q76 93 232 93t254 -98q99 -98 99 -251v-553z" />
    <glyph glyph-name="n" unicode="n" horiz-adv-x="1003" 
d="M870 20q0 -20 -20 -20h-143q-20 0 -21 20v553q0 76 -54 130q-54 55 -130 55t-130 -54t-55 -131v-553q0 -20 -20 -20h-143q-20 0 -21 20v881q0 20 21 21h122q20 0 21 -21v-24q0 -25 16 -25q4 0 17 8q74 61 172 62q168 0 268 -96t100 -253v-553z" />
    <glyph glyph-name="o" unicode="o" horiz-adv-x="942" 
d="M655 328v266q0 76 -54 130t-130 54t-130 -54t-54 -130v-266q0 -76 54 -130t130 -54t130 54t54 130zM840 328q0 -156 -100 -252t-269 -96q-168 0 -268 96t-101 252v266q0 156 100 252t269 96q168 0 268 -96t101 -252v-266z" />
    <glyph glyph-name="p" unicode="p" horiz-adv-x="972" 
d="M686 348v225q0 76 -54 130q-54 55 -130 55t-130 -54t-55 -131v-225q1 -76 55 -130t130 -54t130 54t54 130zM870 348q0 -152 -100 -250t-248 -98q-98 0 -172 61q-12 8 -16 9q-16 0 -17 -25v-485q0 -20 -20 -21h-143q-20 0 -21 21v1341q0 20 21 21h122q20 0 21 -21v-24
q0 -25 16 -25q4 0 17 8q74 61 172 62q168 0 268 -96t100 -253v-225z" />
    <glyph glyph-name="q" unicode="q" horiz-adv-x="972" 
d="M655 348v225q0 76 -54 130q-54 55 -130 55t-130 -54t-54 -131v-225q0 -76 54 -130t130 -54t130 54t54 130zM840 -440q0 -20 -21 -21h-143q-20 0 -21 21v485q0 25 -18 25q-4 0 -16 -9q-74 -61 -170 -61q-147 0 -248 98q-100 98 -101 250v225q0 156 100 252t269 97
q96 0 170 -62q12 -8 16 -8q18 0 19 25v24q0 20 20 21h123q20 0 21 -21v-1341z" />
    <glyph glyph-name="r" unicode="r" horiz-adv-x="610" 
d="M317 20q0 -20 -20 -20h-143q-20 0 -21 20v881q0 20 21 21h122q20 0 21 -21v-65q0 -25 18 -25q8 -1 25 21t67 56t86 34t64 -4q16 -2 16 -21v-162q0 -18 -16 -18l-57 10q-82 0 -132 -44t-51 -130v-533z" />
    <glyph glyph-name="s" unicode="s" horiz-adv-x="901" 
d="M815 289q0 -131 -89 -220t-249 -89h-61q-195 0 -291 124q-43 54 -43 72t12 25l107 53q20 10 26 10t13 -12q26 -49 74 -82t102 -33h61q74 0 115 36t41 77q-1 41 -15 55q-14 15 -23 23t-39 19t-71 20q-40 8 -69 14q-30 6 -68 13q-187 34 -238 135q-24 46 -24 112
q0 139 95 220t235 81h61q203 0 299 -137q35 -51 35 -65t-12 -19l-99 -49q-28 -14 -34 -14t-13 12q-25 49 -73 82q-49 33 -103 32h-61q-150 0 -150 -110q0 -33 22 -56t42 -31q20 -7 32 -11t38 -11q26 -5 48 -11q22 -4 80 -16q210 -38 264 -140q23 -46 23 -109z" />
    <glyph glyph-name="t" unicode="t" horiz-adv-x="645" 
d="M543 2q0 -20 -21 -20q-68 0 -154 36t-140 117q-54 82 -54 193v409q0 20 -20 21h-113q-20 0 -21 18q0 8 5 74l225 240q16 16 29 16h59q20 0 20 -21v-143q0 -20 21 -20h143q20 0 21 -21v-123q0 -20 -21 -20h-143q-20 0 -21 -21v-409q0 -68 46 -119t122 -64q16 -4 17 -20
v-123z" />
    <glyph glyph-name="u" unicode="u" horiz-adv-x="983" 
d="M850 20q0 -20 -21 -20h-122q-20 0 -21 20v25q0 25 -18 25q-4 0 -17 -9q-74 -61 -170 -61q-168 0 -268 96t-100 252v553q0 20 20 21h143q20 0 21 -21v-553q0 -76 54 -130t130 -54t130 54t55 130v553q0 20 20 21h143q20 0 21 -21v-881z" />
    <glyph glyph-name="v" unicode="v" horiz-adv-x="880" 
d="M874 905q0 -4 -14 -43l-344 -850q-6 -12 -18 -12h-115q-12 0 -18 12l-345 850q-14 35 -14 43q0 16 21 17h153q12 0 19 -13l215 -551q18 -35 22 -79h8q4 33 23 79l215 551q6 12 18 13h154q20 -1 20 -17z" />
    <glyph glyph-name="w" unicode="w" horiz-adv-x="1243" 
d="M1221 905q0 -6 -9 -31l-262 -860q-2 -14 -20 -14h-111q-18 0 -20 14l-152 518q-10 29 -20 80h-9q-8 -35 -22 -80l-152 -518q-2 -14 -20 -14h-111q-18 0 -20 14l-260 854q-2 6 -4 14t-4 15q-2 6 -2 8q0 16 22 17h154q18 0 20 -15l125 -487q7 -36 21 -80h8q4 16 11 43t9 37
l135 487q2 14 21 15h145q18 0 21 -15l133 -485q18 -57 22 -80h9q10 40 22 82l123 483q2 14 20 15h154q23 -1 23 -17z" />
    <glyph glyph-name="x" unicode="x" horiz-adv-x="835" 
d="M821 16q0 -16 -20 -16h-168q-12 0 -19 10l-180 291q-10 14 -18 14t-19 -14l-180 -291q-6 -10 -18 -10h-164q-37 0 -10 41l258 397q10 16 10 26t-10 23l-254 387q-14 25 -15 31q0 16 21 17h166q10 0 16 -11l182 -293q5 -12 15 -12t16 12l184 293q6 10 17 11h170
q20 0 20 -17q0 -10 -18 -37l-248 -376q-12 -18 -12 -30t10 -26l256 -393q12 -21 12 -27z" />
    <glyph glyph-name="y" unicode="y" horiz-adv-x="983" 
d="M850 -113q0 -166 -95 -267t-277 -101t-281 114q-57 63 -58 93q0 10 13 16l106 53q29 15 37 15t14 -13q55 -115 172 -114q76 0 130 54t55 130v170q0 25 -19 24q-10 0 -18 -8q-59 -53 -148 -53q-168 0 -268 96t-100 252v553q0 20 20 21h143q20 0 21 -21v-553q0 -76 54 -130
t130 -54t130 54t55 130v553q0 20 20 21h143q20 0 21 -21v-1014z" />
    <glyph glyph-name="z" unicode="z" horiz-adv-x="880" 
d="M807 20q0 -20 -21 -20h-714q-23 0 -23 16q0 6 25 50l383 639q16 27 16 34q0 16 -22 17h-359q-20 0 -20 20v123q0 20 20 21h678q23 0 23 -17q0 -8 -19 -39l-389 -645q-18 -33 -18 -39q0 -16 22 -16h397q20 0 21 -21v-123z" />
    <glyph glyph-name="braceleft" unicode="{" horiz-adv-x="839" 
d="M688 -346q0 -20 -20 -21q-86 0 -170 43q-178 92 -179 324v297q0 68 -46 119t-121 63q-16 4 -17 21v127q0 16 17 20q76 11 122 63t45 119v297q0 254 211 338q78 29 138 29q20 0 20 -20v-123q0 -16 -16 -21q-76 -12 -122 -63t-46 -119v-338q0 -59 -39 -128t-90 -103
q-10 -4 -10 -14t10 -19q51 -37 90 -110t39 -132v-323q0 -68 46 -119t122 -64q16 -4 16 -20v-123z" />
    <glyph glyph-name="bar" unicode="|" horiz-adv-x="1558" 
d="M532 1147q-76 0 -130 -54t-54 -130v-113q0 -20 21 -21h313q20 0 20 21v72q0 41 7 77l8 35q0 10 -12 27q-68 86 -173 86zM1425 20q0 -20 -20 -20h-143q-20 0 -21 20v1086q0 20 -20 20h-150q-76 0 -130 -54t-54 -130v-92q0 -20 20 -21h144q20 0 20 -20v-123q0 -20 -20 -20
h-144q-20 0 -20 -21v-625q0 -20 -21 -20h-143q-20 0 -21 20v625q0 20 -20 21h-313q-20 0 -21 -21v-625q0 -20 -20 -20h-144q-20 0 -20 20v625q0 20 -21 21h-51q-20 0 -20 20v123q0 20 20 20h51q20 0 21 21v92q0 154 108 262t272 107q166 0 265 -103q8 -8 14 -8t13 6
q106 84 235 84h334q20 0 20 -20v-1250z" />
    <glyph glyph-name="braceright" unicode="}" horiz-adv-x="839" 
d="M705 500q0 -16 -17 -21q-76 -12 -122 -63t-46 -119v-297q0 -231 -178 -324q-84 -43 -170 -43q-20 0 -20 21v123q0 16 16 20q76 11 122 63t46 120v323q0 59 39 132t90 110q10 10 10 19t-10 14q-51 36 -90 104t-39 127v338q0 68 -46 119t-122 63q-16 4 -16 21v123
q0 20 20 20q59 0 137 -29q211 -84 211 -338v-297q0 -69 46 -119t122 -63q16 -4 17 -20v-127z" />
    <glyph glyph-name="asciitilde" unicode="~" horiz-adv-x="1122" 
d="M702 942q0 38 6 66t5 34q0 6 -11 21q-66 84 -156 84t-144 -54t-54 -130v-113q0 -20 21 -21h313q20 0 20 21v92zM1054 1311q130 0 130 -25q0 -8 -8 -29l-35 -100q-6 -14 -17 -14l-53 4q-76 0 -130 -54t-54 -130v-113q0 -20 20 -21h144q20 0 20 -20v-123q0 -20 -20 -20
h-144q-20 0 -20 -21v-625q0 -20 -21 -20h-143q-20 0 -21 20v625q0 20 -20 21h-313q-20 0 -21 -21v-625q0 -20 -20 -20h-144q-20 0 -20 20v625q0 20 -21 21h-51q-20 0 -20 20v123q0 20 20 20h51q20 0 21 21v92q0 154 108 262t266 107q158 0 257 -90q19 -13 28 -2
q101 92 231 92z" />
    <glyph glyph-name="nbspace" unicode="&#xa0;" 
 />
    <glyph glyph-name="exclamdown" unicode="&#xa1;" horiz-adv-x="614" 
d="M399 -348q0 -20 -20 -21h-143q-20 0 -21 21v528l43 355q4 18 21 18h55q18 0 20 -18l45 -355v-528zM420 829q0 -47 -33 -79t-80 -33q-47 0 -80 33q-33 34 -33 80t33 79t80 33t80 -33t33 -80z" />
    <glyph glyph-name="cent" unicode="&#xa2;" 
d="M494 219v565q0 20 -17 21q-18 0 -49 -25q-72 -55 -72 -145v-266q0 -82 64 -140q35 -31 57 -30q17 0 17 20zM883 225q0 -14 -45 -73q-86 -111 -236 -127q-16 -2 -16 -21v-127q0 -20 -21 -20h-51q-20 0 -20 20v127q0 16 -21 21q-139 18 -220 111t-81 233v266q0 139 81 232
t220 112q20 4 21 20v127q0 20 20 21h51q20 0 21 -21v-127q0 -18 16 -20q152 -16 238 -131q43 -54 43 -68t-13 -20l-100 -51q-33 -17 -42 -17t-22 28q-12 28 -50 56t-54 27q-16 0 -16 -21v-561q0 -20 16 -20q24 1 56 29t46 56t24 27q9 0 38 -14l104 -53q13 -7 13 -21z" />
    <glyph glyph-name="sterling" unicode="&#xa3;" 
d="M985 1109q0 -15 -12 -22l-103 -51q-33 -16 -41 -16t-14 12q-57 115 -170 115q-76 0 -130 -54t-54 -130v-205q0 -20 20 -21h144q20 0 20 -20v-123q0 -20 -20 -21h-144q-20 0 -20 -20v-225q0 -70 -34 -124q-11 -19 -11 -24q0 -16 22 -16h463q20 0 21 -21v-123
q0 -20 -21 -20h-881q-20 0 -20 20v123q0 20 20 21h95q69 10 115 62t46 122v205q0 20 -20 20h-51q-20 0 -21 21v123q0 20 21 20h51q20 0 20 21v184q0 154 108 262t261 107q193 0 295 -127q45 -60 45 -75z" />
    <glyph glyph-name="currency" unicode="&#xa4;" 
d="M578 -20q-168 0 -269 96q-100 96 -100 252v51q0 20 -21 20h-122q-20 0 -21 21v102q0 20 21 21h122q20 0 21 20v164q0 20 -21 21h-122q-20 0 -21 20v102q0 20 21 21h122q20 0 21 20v52q0 155 100 251t269 97h61q152 0 244 -76q53 -41 94 -119q10 -18 -10 -29l-131 -65
q-16 -8 -27 10q-57 115 -170 115h-61q-76 0 -130 -54t-55 -130v-52q0 -20 21 -20h286q20 0 21 -21v-102q0 -20 -21 -20h-286q-20 0 -21 -21v-164q0 -20 21 -20h286q20 0 21 -21v-102q0 -20 -21 -21h-286q-20 0 -21 -20v-51q0 -76 54 -130t131 -55h61q113 0 172 119
q8 18 29 8l129 -65q16 -9 8 -27q-96 -198 -338 -198h-61z" />
    <glyph glyph-name="yen" unicode="&#xa5;" 
d="M975 1274q0 -10 -17 -39l-266 -498q-20 -35 -20 -45q0 -16 22 -16h248q20 0 21 -21v-102q0 -20 -21 -21h-307q-20 0 -21 -20v-164q0 -20 21 -20h307q20 0 21 -21v-102q0 -20 -21 -21h-307q-20 0 -21 -20v-144q0 -20 -20 -20h-143q-20 0 -21 20v144q0 20 -20 20h-308
q-20 0 -20 21v102q0 20 20 21h308q20 0 20 20v164q0 20 -20 20h-308q-20 0 -20 21v102q0 20 20 21h248q23 0 23 16q0 4 -19 41l-270 508q-14 25 -14 33q0 16 22 16h168q10 0 19 -12l225 -467q6 -16 18 -16t19 16l225 467q8 12 18 12h168q23 0 23 -16z" />
    <glyph glyph-name="brokenbar" unicode="&#xa6;" horiz-adv-x="491" 
d="M307 -369h-123v746h123v-746zM307 750h-123v745h123v-745z" />
    <glyph glyph-name="section" unicode="&#xa7;" 
d="M709 244q10 0 20 24t10 65q0 90 -72 140t-266 137q-25 12 -31 12t-18 -25q-14 -26 -14 -70q0 -84 65 -128t147 -81q82 -38 120 -56t39 -18zM924 -113q0 -156 -100 -252t-269 -96h-86q-205 0 -307 148q-33 49 -33 59t12 16l113 58q20 10 30 10t15 -12q55 -115 170 -115h86
q76 0 130 54t54 131q0 133 -207 223q-86 37 -172 81t-146 126q-60 84 -60 196t33 168t32 59q-1 5 -33 61t-32 161q0 155 100 251t268 97h33q199 0 303 -137q37 -48 37 -64t-12 -23l-111 -55q-25 -12 -33 -12t-14 12q-57 115 -170 115h-33q-76 0 -130 -54t-54 -127t60 -121
t146 -85t173 -82q86 -45 146 -134q61 -88 61 -200t-43 -188q-20 -35 -21 -37l21 -41q43 -82 43 -191z" />
    <glyph glyph-name="dieresis" unicode="&#xa8;" horiz-adv-x="1024" 
d="M455 1176q0 -41 -31 -72t-72 -31q-42 0 -72 31t-30 72q0 42 31 72t71 30t72 -30q31 -30 31 -72zM776 1176q0 -41 -31 -72t-71 -31t-72 31q-31 31 -31 72q0 42 31 72t72 30q42 0 72 -30t30 -72z" />
    <glyph glyph-name="copyright" unicode="&#xa9;" horiz-adv-x="1474" 
d="M969 296q0 -13 -37 -54q-68 -74 -191 -74t-195 68t-71 178v202q0 109 71 176q72 66 194 66t188 -72q37 -37 37 -51t-11 -20l-43 -23q-25 -12 -31 -12t-12 10q-56 76 -126 76t-114 -43t-44 -107v-202q0 -60 45 -106t115 -46t124 80q6 10 14 10t25 -10l49 -27q13 -6 13 -19
zM1198 205v594q0 115 -76 185t-200 71h-369q-125 0 -201 -71t-76 -185v-594q0 -115 76 -186t201 -70h369q124 1 200 71t76 185zM1290 205q0 -156 -100 -252t-268 -96h-369q-168 0 -268 96t-101 252v594q0 156 100 252t269 96h369q168 0 268 -96t100 -252v-594z" />
    <glyph glyph-name="ordfeminine" unicode="&#xaa;" horiz-adv-x="679" 
d="M449 881q0 14 -15 14h-155q-19 0 -35 -15t-17 -36v-25q-1 -23 15 -38t37 -15h57q39 0 73 28t40 66v21zM598 655q0 -25 -25 -24h-86q-25 0 -24 24v25q0 12 -8 12t-19 -10q-57 -53 -108 -53h-49q-84 0 -143 53q-58 53 -58 137v10q0 83 57 135t144 52h153q16 0 17 18v27
q0 49 -35 83q-34 34 -94 34t-103 -76q-6 -12 -15 -12t-26 8l-78 41q-14 8 -14 19t25 48q72 104 207 104q134 0 208 -69q74 -70 74 -182v-404z" />
    <glyph glyph-name="guillemotleft" unicode="&#xab;" horiz-adv-x="1134" 
d="M557 223q0 -23 -16 -22q-8 0 -17 6l-403 287q-8 8 -8 16v121q0 8 8 16l403 289q8 6 17 6q16 0 16 -22v-117q0 -8 -8 -17l-277 -198q-10 -10 -10 -16t10 -17l277 -199q8 -8 8 -16v-117zM999 223q0 -23 -16 -22q-8 0 -16 6l-406 287q-8 8 -8 16v121q0 8 8 16l406 289
q8 6 16 6q16 0 16 -22v-117q0 -8 -8 -17l-276 -198q-10 -10 -10 -16t10 -17l276 -199q8 -8 8 -16v-117z" />
    <glyph glyph-name="logicalnot" unicode="&#xac;" 
d="M952 266q0 -20 -20 -20h-92q-20 0 -21 20v328q0 20 -20 20h-686q-20 0 -21 21v82q0 20 21 20h819q20 0 20 -20v-451z" />
    <glyph glyph-name="registered" unicode="&#xae;" horiz-adv-x="901" 
d="M473 928q29 0 47 20t17 50t-19 48t-45 19h-65q-20 0 -21 -21v-96q0 -20 21 -20h65zM602 994q0 -58 -53 -101q-8 -6 -8 -13t8 -24l39 -78q10 -20 10 -26q0 -14 -23 -15h-32q-12 0 -19 13l-47 108q-6 12 -18 12h-51q-20 0 -21 -20v-92q0 -20 -20 -21h-23q-20 0 -20 21v344
q0 20 20 20h129q59 0 94 -35t35 -93zM762 901v41q0 129 -84 208t-223 79h-9q-139 0 -223 -79t-84 -208v-41q0 -129 84 -208t223 -79h9q139 0 223 79t84 208zM823 901q0 -156 -100 -252t-268 -96h-9q-168 0 -268 96t-100 252v41q0 156 100 252t268 96h9q168 0 268 -96
t100 -252v-41z" />
    <glyph glyph-name="macron" unicode="&#xaf;" horiz-adv-x="1024" 
d="M748 1126q0 -20 -21 -20h-430q-20 0 -21 20v123q0 20 21 21h430q20 0 21 -21v-123z" />
    <glyph glyph-name="degree" unicode="&#xb0;" horiz-adv-x="552" 
d="M336 926v200q0 23 -18 41q-18 19 -43 19q-23 0 -39 -18t-17 -42v-200q1 -25 17 -41q16 -17 40 -17t42 18t18 40zM471 926q0 -82 -52 -133q-51 -51 -141 -51t-143 50q-53 52 -53 134v198q0 82 53 134t141 52t142 -50q54 -51 53 -134v-200z" />
    <glyph glyph-name="plusminus" unicode="&#xb1;" 
d="M952 20q0 -20 -20 -20h-819q-20 0 -21 20v82q0 20 21 21h819q20 0 20 -21v-82zM952 635q0 -20 -20 -21h-328q-20 0 -20 -20v-328q0 -20 -21 -20h-82q-20 0 -20 20v328q0 20 -21 20h-327q-20 0 -21 21v82q0 20 21 20h327q20 0 21 21v327q0 20 20 21h82q20 0 21 -21v-327
q0 -20 20 -21h328q20 0 20 -20v-82z" />
    <glyph glyph-name="twosuperior" unicode="&#xb2;" horiz-adv-x="690" 
d="M610 965q0 -124 -127 -169q-85 -30 -119 -40t-56 -20q-60 -26 -60 -70v-13q0 -12 14 -12h328q12 0 12 -10v-105q0 -12 -12 -12h-481q-12 0 -13 12v92q0 131 66 178t114 60q50 14 70 22t41 11q21 4 42 19q21 16 29 28t7 44q0 32 -27 58t-78 27h-53q-57 0 -108 -74
q-8 -12 -19 -8l-104 49q-12 6 -6 19q80 141 235 141h55q114 0 182 -62t68 -165z" />
    <glyph glyph-name="threesuperior" unicode="&#xb3;" horiz-adv-x="690" 
d="M600 676q0 -112 -70 -178t-186 -66h-39q-162 0 -237 139q-8 12 4 23l104 47q10 6 19 -6q47 -76 114 -76h35q47 0 79 31t32 76v47q0 43 -32 73t-79 29h-115q-12 0 -12 14v101q0 12 12 12h115q49 0 80 31t31 76v20q0 45 -32 75t-79 30h-35q-68 0 -114 -74q-8 -16 -19 -6
l-104 49q-12 6 -4 20q76 139 237 140h39q116 0 186 -68t70 -178v-23q0 -47 -29 -88t-65 -57q-6 -6 0 -10q34 -19 64 -63t30 -99v-41z" />
    <glyph glyph-name="acute" unicode="&#xb4;" horiz-adv-x="1024" 
d="M801 1315q0 -10 -8 -19l-244 -239q-27 -23 -49 -23h-70q-20 0 -20 17q0 10 18 36l143 220q14 25 54 24h153q23 0 23 -16z" />
    <glyph glyph-name="mu" unicode="&#xb5;" horiz-adv-x="983" 
d="M850 20q0 -20 -21 -20h-122q-20 0 -21 20v25q0 25 -18 25q-4 0 -17 -9q-74 -61 -165 -61t-169 31q-20 8 -20 -15v-323q0 -20 -21 -21h-143q-20 0 -20 21v1208q0 20 20 21h143q20 0 21 -21v-553q0 -76 54 -130t130 -54t130 54t55 130v553q0 20 20 21h143q20 0 21 -21v-881
z" />
    <glyph glyph-name="paragraph" unicode="&#xb6;" horiz-adv-x="1259" 
d="M1106 -440q0 -20 -21 -21h-143q-20 0 -20 21v1546q0 20 -21 20h-143q-20 0 -21 -20v-1546q0 -20 -20 -21h-144q-20 0 -20 21v604q0 20 -21 20h-40q-166 0 -268 98t-101 250v390q0 168 100 268t269 100h593q20 0 21 -20v-1710z" />
    <glyph glyph-name="periodcentered" unicode="&#xb7;" 
d="M635 494q0 -47 -33 -80t-80 -33t-80 33t-32 80q0 48 32 80t80 32q47 0 80 -32t33 -80z" />
    <glyph glyph-name="cedilla" unicode="&#xb8;" horiz-adv-x="1024" 
d="M639 -270q0 -84 -59 -138t-148 -53h-98q-20 0 -21 21v82q0 20 21 20h98q29 0 48 20t20 48v16q0 66 -66 76l-37 6q-20 2 -20 14t18 49l72 150q6 12 15 12t38 -6l58 -12q18 -2 18 -17q0 -4 -10 -24l-29 -60q-10 -20 -10 -29t8 -11q84 -41 84 -148v-16z" />
    <glyph glyph-name="onesuperior" unicode="&#xb9;" horiz-adv-x="690" 
d="M596 526q0 -12 -12 -12h-447q-12 0 -12 12v103q0 12 12 12h135q14 0 15 14v275q0 21 -19 8l-61 -57q-8 -6 -19 0l-73 69q-8 8 0 19l229 219q8 4 14 4h62q12 0 12 -14v-523q0 -14 17 -14h135q12 0 12 -12v-103z" />
    <glyph glyph-name="ordmasculine" unicode="&#xba;" horiz-adv-x="659" 
d="M449 870v187q0 47 -36 83t-83 36t-83 -36t-36 -83v-187q0 -47 36 -83q36 -35 83 -35t83 36t36 82zM598 870q0 -114 -74 -184t-194 -70t-195 71q-74 71 -74 183v187q0 113 74 183t195 71q120 0 194 -71t74 -183v-187z" />
    <glyph glyph-name="guillemotright" unicode="&#xbb;" horiz-adv-x="1134" 
d="M582 510q0 -8 -9 -16l-405 -287q-8 -6 -16 -6q-16 0 -17 22v117q0 8 8 16l277 199q10 10 10 16t-10 17l-277 198q-8 8 -8 17v117q0 23 17 22q8 0 16 -6l405 -289q8 -8 9 -16v-121zM1022 510q0 -8 -8 -16l-404 -287q-8 -6 -16 -6q-16 0 -16 22v117q0 8 8 16l276 199
q10 10 10 16t-10 17l-276 198q-8 8 -8 17v117q0 23 16 22q8 0 16 -6l404 -289q8 -8 8 -16v-121z" />
    <glyph glyph-name="onequarter" unicode="&#xbc;" horiz-adv-x="1953" 
d="M1395 152v307q0 4 -7 7t-10 -1l-190 -305q-14 -20 8 -21h184q15 1 15 13zM717 526q0 -12 -12 -12h-445q-14 0 -14 12v103q0 12 14 12h133q16 0 17 14v275q0 8 -6 11t-13 -3l-63 -57q-8 -8 -19 0l-71 69q-8 8 0 19l229 219q8 4 14 4h62q12 0 12 -14v-523q0 -14 16 -14h134
q12 0 12 -12v-103zM1663 29q0 -12 -14 -13h-95q-12 0 -12 -12v-168q0 -12 -14 -12h-121q-12 0 -12 12v168q0 12 -15 12h-336q-14 0 -14 13v108l367 518q4 6 14 7h117q14 0 14 -13v-489q0 -14 12 -15h95q14 0 14 -12v-104zM733 0h-49q-31 0 -18 29l534 1249q6 12 19 12h49
q30 1 18 -28l-534 -1250q-6 -12 -19 -12z" />
    <glyph glyph-name="onehalf" unicode="&#xbd;" horiz-adv-x="1953" 
d="M717 526q0 -12 -12 -12h-445q-14 0 -14 12v103q0 12 14 12h133q16 0 17 14v275q0 8 -6 11t-13 -3l-63 -57q-8 -8 -19 0l-71 69q-8 8 0 19l229 219q8 4 14 4h62q12 0 12 -14v-523q0 -14 16 -14h134q12 0 12 -12v-103zM733 0h-49q-31 0 -18 29l534 1249q6 12 19 12h49
q30 1 18 -28l-534 -1250q-6 -12 -19 -12zM1655 451q1 -67 -23 -94t-38 -39t-42 -25q-29 -12 -55 -23q-27 -11 -77 -26q-50 -14 -68 -22q-58 -28 -60 -70v-13q0 -12 15 -12h325q14 0 15 -10v-105q0 -12 -15 -12h-479q-12 0 -12 12v92q0 132 66 179t114 60q47 13 65 19l27 9
q62 15 79 38q17 22 17 55q1 34 -27 60t-79 27h-51q-59 0 -111 -74q-4 -14 -16 -8l-105 49q-6 2 -8 9t2 10q78 141 236 141h53q117 0 185 -62t67 -165z" />
    <glyph glyph-name="threequarters" unicode="&#xbe;" horiz-adv-x="1953" 
d="M1395 152v307q0 4 -7 7t-10 -1l-190 -305q-14 -20 8 -21h184q15 1 15 13zM758 676q0 -112 -71 -178t-187 -66h-39q-162 0 -236 139q-10 14 4 23l103 47q12 6 20 -6q45 -76 113 -76h35q47 0 79 31t31 76v47q0 43 -30 73t-80 29h-115q-12 0 -12 14v101q0 12 12 12h115
q49 0 80 31t30 76v20q0 45 -31 75q-32 30 -79 30h-35q-70 0 -113 -74q-8 -16 -20 -6l-103 49q-12 4 -4 20q74 139 236 140h39q118 0 188 -68t70 -178v-23q0 -47 -29 -88t-67 -57q-6 -6 0 -10q36 -19 66 -63t30 -99v-41zM1663 29q0 -12 -14 -13h-95q-12 0 -12 -12v-168
q0 -12 -14 -12h-121q-12 0 -12 12v168q0 12 -15 12h-336q-14 0 -14 13v108l367 518q4 6 14 7h117q14 0 14 -13v-489q0 -14 12 -15h95q14 0 14 -12v-104zM733 0h-49q-31 0 -18 29l534 1249q6 12 19 12h49q30 1 18 -28l-534 -1250q-6 -12 -19 -12z" />
    <glyph glyph-name="questiondown" unicode="&#xbf;" 
d="M541 553h141q18 0 20 -16q16 -107 5 -150t-17 -63t-28 -44t-30 -34q-7 -10 -40 -30t-38 -22q-5 -3 -46 -24l-39 -20q-49 -24 -78 -44t-53 -59t-23 -101t55 -117q54 -54 130 -54h78q115 0 170 114q6 13 15 13t34 -13l108 -55q13 -6 13 -21t-48 -75q-102 -127 -292 -127
h-78q-168 0 -269 96q-100 96 -100 263t106 245q85 66 142 82q49 23 76 40t49 51q23 34 22 79l-6 68q0 18 21 18zM696 829q0 -47 -32 -79t-80 -33q-47 0 -80 33q-33 34 -33 80t33 79t80 33q48 0 80 -33t32 -80z" />
    <glyph glyph-name="Agrave" unicode="&#xc0;" horiz-adv-x="921" 
d="M590 479q0 2 -12 47l-89 346q-2 8 -12 46t-12 45h-8q-12 -49 -25 -93l-88 -335q-2 -10 -8 -29t-6 -27q0 -18 22 -18h215q23 0 23 18zM920 16q0 -16 -23 -16h-154q-18 0 -20 14l-76 271q-2 12 -20 12h-332q-18 0 -21 -12l-75 -271q-2 -14 -21 -14h-153q-23 0 -23 16
q0 8 21 70l362 1190q2 14 21 14h110q18 0 21 -14l364 -1196q19 -56 19 -64zM545 1407h-101q-18 0 -32 12l-260 207q-15 10 -7 18t15 7h211q14 0 26 -15l158 -206q14 -23 -10 -23z" />
    <glyph glyph-name="Aacute" unicode="&#xc1;" horiz-adv-x="921" 
d="M590 479q0 2 -12 47l-89 346q-2 8 -12 46t-12 45h-8q-12 -49 -25 -93l-88 -335q-2 -10 -8 -29t-6 -27q0 -18 22 -18h215q23 0 23 18zM920 16q0 -16 -23 -16h-154q-18 0 -20 14l-76 271q-2 12 -20 12h-332q-18 0 -21 -12l-75 -271q-2 -14 -21 -14h-153q-23 0 -23 16
q0 8 21 70l362 1190q2 14 21 14h110q18 0 21 -14l364 -1196q19 -56 19 -64zM479 1407h-100q-25 0 -10 23l157 206q12 14 27 15h211q10 1 13 -9t-5 -16l-260 -207q-16 -12 -33 -12z" />
    <glyph glyph-name="Acircumflex" unicode="&#xc2;" horiz-adv-x="921" 
d="M590 479q0 2 -12 47l-89 346q-2 8 -12 46t-12 45h-8q-12 -49 -25 -93l-88 -335q-2 -10 -8 -29t-6 -27q0 -18 22 -18h215q23 0 23 18zM920 16q0 -16 -23 -16h-154q-18 0 -20 14l-76 271q-2 12 -20 12h-332q-18 0 -21 -12l-75 -271q-2 -14 -21 -14h-153q-23 0 -23 16
q0 8 21 70l362 1190q2 14 21 14h110q18 0 21 -14l364 -1196q19 -56 19 -64zM571 1403q-10 0 -20 12l-74 111q-14 25 -28 0l-74 -111q-10 -12 -21 -12h-108q-27 0 -13 22l166 230q6 10 21 10h86q14 0 20 -10l166 -230q14 -23 -12 -22h-109z" />
    <glyph glyph-name="Atilde" unicode="&#xc3;" horiz-adv-x="921" 
d="M590 479q0 2 -12 47l-89 346q-2 8 -12 46t-12 45h-8q-12 -49 -25 -93l-88 -335q-2 -10 -8 -29t-6 -27q0 -18 22 -18h215q23 0 23 18zM920 16q0 -16 -23 -16h-154q-18 0 -20 14l-76 271q-2 12 -20 12h-332q-18 0 -21 -12l-75 -271q-2 -14 -21 -14h-153q-23 0 -23 16
q0 8 21 70l362 1190q2 14 21 14h110q18 0 21 -14l364 -1196q19 -56 19 -64zM559 1432q-41 0 -102 34t-100 35q-39 0 -83 -53q-14 -16 -26 -6l-53 39q-12 10 -5 24q74 123 177 123q45 0 104 -33t98 -33t86 56q16 18 31 6l51 -39q14 -10 4 -26q-78 -127 -182 -127z" />
    <glyph glyph-name="Adieresis" unicode="&#xc4;" horiz-adv-x="921" 
d="M590 479q0 2 -12 47l-89 346q-2 8 -12 46t-12 45h-8q-12 -49 -25 -93l-88 -335q-2 -10 -8 -29t-6 -27q0 -18 22 -18h215q23 0 23 18zM920 16q0 -16 -23 -16h-154q-18 0 -20 14l-76 271q-2 12 -20 12h-332q-18 0 -21 -12l-75 -271q-2 -14 -21 -14h-153q-23 0 -23 16
q0 8 21 70l362 1190q2 14 21 14h110q18 0 21 -14l364 -1196q19 -56 19 -64zM408 1534q0 -41 -29 -72q-29 -30 -71 -30t-70 30t-27 71q0 42 28 71q29 28 71 28t70 -28t28 -70zM715 1534q0 -41 -30 -72q-30 -30 -72 -30q-41 0 -69 30t-28 71q0 42 29 71q29 28 71 28t70 -28
q29 -28 29 -70z" />
    <glyph glyph-name="Aring" unicode="&#xc5;" horiz-adv-x="921" 
d="M590 479q0 2 -12 47l-89 346q-2 8 -12 46t-12 45h-8q-12 -49 -25 -93l-88 -335q-2 -10 -8 -29t-6 -27q0 -18 22 -18h215q23 0 23 18zM553 1374v62q0 36 -28 64q-29 28 -65 28t-64 -28t-27 -64v-62q-1 -36 27 -64t65 -28t65 28t27 64zM920 16q0 -16 -23 -16h-154
q-18 0 -20 14l-76 271q-2 12 -20 12h-332q-18 0 -21 -12l-75 -271q-2 -14 -21 -14h-153q-23 0 -23 16q0 8 21 70l329 1085q10 35 10 42t-10 16q-76 49 -76 145v62q0 78 50 126t135 48q84 0 134 -48t50 -126v-62q0 -94 -72 -143q-12 -7 -12 -21t8 -39l332 -1091
q19 -56 19 -64z" />
    <glyph glyph-name="AE" unicode="&#xc6;" horiz-adv-x="1429" 
d="M362 461h218q20 0 20 20v158q0 233 6 307l-8 2q-10 -27 -37 -74l-199 -350q-23 -41 -22 -47q0 -16 22 -16zM1337 20q0 -20 -20 -20h-696q-20 0 -21 20v256q0 20 -20 21h-336q-14 0 -21 -12l-153 -275q-6 -10 -19 -10h-149q-23 0 -23 16q0 8 19 39l723 1225q6 10 18 10
h678q20 0 20 -20v-123q0 -20 -20 -21h-512q-20 0 -21 -20v-348q0 -20 21 -21h420q20 0 20 -20v-123q0 -20 -20 -21h-420q-20 0 -21 -20v-369q0 -20 21 -20h512q20 0 20 -21v-123z" />
    <glyph glyph-name="Ccedilla" unicode="&#xc7;" horiz-adv-x="952" 
d="M895 184q0 -14 -45 -73q-102 -131 -297 -131q-16 0 -31 -25l-18 -37q-8 -18 6 -24q84 -41 84 -148v-16q0 -84 -59 -138t-148 -53h-98q-20 0 -21 21v82q0 20 21 20h98q29 0 48 20t20 48v16q0 66 -66 76l-37 6q-31 4 -18 29l45 94q10 16 10 27t-18 18q-117 33 -183 121
t-65 211v635q0 155 100 251t269 97h61q190 0 291 -123q49 -62 49 -78t-12 -23l-107 -53q-29 -14 -37 -14t-14 12q-57 115 -170 115h-61q-76 0 -130 -54t-55 -130v-635q0 -76 54 -130t131 -55h61q113 0 172 119q6 12 13 12q8 0 12 -2t11 -6t13 -6l109 -55q12 -7 12 -21z" />
    <glyph glyph-name="Egrave" unicode="&#xc8;" horiz-adv-x="983" 
d="M891 20q0 -20 -21 -20h-696q-20 0 -20 20v1250q0 20 20 20h696q20 0 21 -20v-123q0 -20 -21 -21h-512q-20 0 -20 -20v-348q0 -20 20 -21h420q20 0 21 -20v-123q0 -20 -21 -21h-420q-20 0 -20 -20v-369q0 -20 20 -20h512q20 0 21 -21v-123zM608 1407h-100q-16 0 -33 12
l-260 207q-14 10 -6 17q8 8 14 8h211q14 0 27 -15l157 -206q14 -23 -10 -23z" />
    <glyph glyph-name="Eacute" unicode="&#xc9;" horiz-adv-x="983" 
d="M891 20q0 -20 -21 -20h-696q-20 0 -20 20v1250q0 20 20 20h696q20 0 21 -20v-123q0 -20 -21 -21h-512q-20 0 -20 -20v-348q0 -20 20 -21h420q20 0 21 -20v-123q0 -20 -21 -21h-420q-20 0 -20 -20v-369q0 -20 20 -20h512q20 0 21 -21v-123zM543 1407h-101q-25 0 -10 23
l158 206q12 14 26 15h211q9 1 13 -9t-4 -16l-261 -207q-14 -12 -32 -12z" />
    <glyph glyph-name="Ecircumflex" unicode="&#xca;" horiz-adv-x="983" 
d="M891 20q0 -20 -21 -20h-696q-20 0 -20 20v1250q0 20 20 20h696q20 0 21 -20v-123q0 -20 -21 -21h-512q-20 0 -20 -20v-348q0 -20 20 -21h420q20 0 21 -20v-123q0 -20 -21 -21h-420q-20 0 -20 -20v-369q0 -20 20 -20h512q20 0 21 -21v-123zM635 1403q-12 0 -21 12l-73 111
q-14 25 -29 0l-74 -111q-8 -12 -20 -12h-109q-27 0 -12 22l166 230q6 10 20 10h86q14 0 21 -10l166 -230q14 -23 -13 -22h-108z" />
    <glyph glyph-name="Edieresis" unicode="&#xcb;" horiz-adv-x="983" 
d="M891 20q0 -20 -21 -20h-696q-20 0 -20 20v1250q0 20 20 20h696q20 0 21 -20v-123q0 -20 -21 -21h-512q-20 0 -20 -20v-348q0 -20 20 -21h420q20 0 21 -20v-123q0 -20 -21 -21h-420q-20 0 -20 -20v-369q0 -20 20 -20h512q20 0 21 -21v-123zM471 1534q0 -41 -29 -72
q-28 -30 -70 -30t-70 30t-28 71q0 42 28 71q28 28 71 28t71 -28t27 -70zM778 1534q0 -41 -30 -72q-30 -30 -71 -30q-42 0 -70 30q-27 30 -27 71q0 42 28 71q29 28 71 28t71 -28q28 -29 28 -70z" />
    <glyph glyph-name="Igrave" unicode="&#xcc;" horiz-adv-x="491" 
d="M338 20q0 -20 -21 -20h-143q-20 0 -20 20v1250q0 20 20 20h143q20 0 21 -20v-1250zM328 1407h-101q-18 0 -32 12l-261 207q-14 10 -6 17q8 8 15 8h211q14 0 26 -15l158 -206q14 -23 -10 -23z" />
    <glyph glyph-name="Iacute" unicode="&#xcd;" horiz-adv-x="491" 
d="M338 20q0 -20 -21 -20h-143q-20 0 -20 20v1250q0 20 20 20h143q20 0 21 -20v-1250zM262 1407h-100q-25 0 -10 23l157 206q12 14 27 15h211q10 1 13 -9t-5 -16l-260 -207q-14 -12 -33 -12z" />
    <glyph glyph-name="Icircumflex" unicode="&#xce;" horiz-adv-x="491" 
d="M338 20q0 -20 -21 -20h-143q-20 0 -20 20v1250q0 20 20 20h143q20 0 21 -20v-1250zM354 1403q-10 0 -20 12l-74 111q-14 25 -29 0l-73 -111q-10 -12 -21 -12h-108q-27 0 -13 22l166 230q6 10 21 10h86q14 0 20 -10l166 -230q14 -23 -12 -22h-109z" />
    <glyph glyph-name="Idieresis" unicode="&#xcf;" horiz-adv-x="491" 
d="M338 20q0 -20 -21 -20h-143q-20 0 -20 20v1250q0 20 20 20h143q20 0 21 -20v-1250zM190 1534q0 -41 -28 -72q-28 -30 -71 -30q-41 0 -69 30t-28 71q0 42 28 71q28 28 70 28t71 -28q27 -29 27 -70zM498 1534q0 -41 -30 -72q-30 -30 -72 -30t-70 30t-27 71q0 42 29 71
q28 28 70 28t71 -28t29 -70z" />
    <glyph glyph-name="Eth" unicode="&#xd0;" horiz-adv-x="1075" 
d="M768 348v594q0 76 -54 130t-130 54h-226q-20 0 -20 -20v-365q0 -18 18 -18h138q20 0 20 -21v-118q0 -20 -20 -21h-138q-18 0 -18 -16v-363q0 -20 20 -20h226q76 0 130 54t54 130zM952 369q0 -169 -99 -269t-269 -100h-410q-20 0 -20 20v527q0 16 -17 16h-84q-20 0 -20 21
v118q0 20 20 21h84q16 0 17 16v531q0 20 20 20h410q170 0 269 -100t99 -268v-553z" />
    <glyph glyph-name="Ntilde" unicode="&#xd1;" horiz-adv-x="1136" 
d="M983 20q0 -20 -20 -20h-132q-12 0 -18 10l-436 793q-27 47 -37 74l-8 -3q6 -74 6 -475v-379q0 -20 -21 -20h-143q-20 0 -20 20v1250q0 20 20 20h131q12 0 19 -10l436 -795q25 -41 37 -73l8 2q-6 74 -6 475v381q0 20 20 20h144q20 0 20 -20v-1250zM666 1432q-40 0 -102 34
t-101 35q-39 0 -82 -53q-14 -16 -27 -6l-53 39q-12 10 -4 24q74 123 176 123q45 0 105 -33t98 -33q39 0 86 56q16 18 31 6l51 -39q14 -10 4 -26q-78 -127 -182 -127z" />
    <glyph glyph-name="Ograve" unicode="&#xd2;" 
d="M737 328v635q0 76 -54 130t-130 54h-61q-76 0 -130 -54t-55 -130v-635q0 -76 54 -130t131 -55h61q76 1 130 55t54 130zM922 328q0 -156 -100 -252t-269 -96h-61q-168 0 -269 96q-100 96 -100 252v635q0 155 100 251t269 97h61q168 -1 268 -97t101 -251v-635zM604 1407
h-100q-16 0 -33 12l-260 207q-14 10 -6 17q8 8 14 8h211q14 0 27 -15l157 -206q14 -23 -10 -23z" />
    <glyph glyph-name="Oacute" unicode="&#xd3;" 
d="M737 328v635q0 76 -54 130t-130 54h-61q-76 0 -130 -54t-55 -130v-635q0 -76 54 -130t131 -55h61q76 1 130 55t54 130zM922 328q0 -156 -100 -252t-269 -96h-61q-168 0 -269 96q-100 96 -100 252v635q0 155 100 251t269 97h61q168 -1 268 -97t101 -251v-635zM539 1407
h-101q-25 0 -10 23l158 206q12 14 26 15h211q10 0 14 -10q2 -9 -6 -15l-260 -207q-14 -12 -32 -12z" />
    <glyph glyph-name="Ocircumflex" unicode="&#xd4;" 
d="M737 328v635q0 76 -54 130t-130 54h-61q-76 0 -130 -54t-55 -130v-635q0 -76 54 -130t131 -55h61q76 1 130 55t54 130zM922 328q0 -156 -100 -252t-269 -96h-61q-168 0 -269 96q-100 96 -100 252v635q0 155 100 251t269 97h61q168 -1 268 -97t101 -251v-635zM631 1403
q-12 0 -21 12l-73 111q-14 25 -29 0l-74 -111q-10 -12 -20 -12h-109q-27 0 -12 22l166 230q6 10 20 10h86q14 0 21 -10l166 -230q14 -23 -13 -22h-108z" />
    <glyph glyph-name="Otilde" unicode="&#xd5;" 
d="M737 328v635q0 76 -54 130t-130 54h-61q-76 0 -130 -54t-55 -130v-635q0 -76 54 -130t131 -55h61q76 1 130 55t54 130zM922 328q0 -156 -100 -252t-269 -96h-61q-168 0 -269 96q-100 96 -100 252v635q0 155 100 251t269 97h61q168 -1 268 -97t101 -251v-635zM618 1432
q-41 0 -102 34t-100 35q-39 0 -82 -53q-14 -16 -27 -6l-53 39q-12 10 -4 24q74 123 176 123q45 0 104 -33t98 -33t87 56q14 18 30 6l52 -39q14 -10 4 -26q-78 -127 -183 -127z" />
    <glyph glyph-name="Odieresis" unicode="&#xd6;" 
d="M737 328v635q0 76 -54 130t-130 54h-61q-76 0 -130 -54t-55 -130v-635q0 -76 54 -130t131 -55h61q76 1 130 55t54 130zM922 328q0 -156 -100 -252t-269 -96h-61q-168 0 -269 96q-100 96 -100 252v635q0 155 100 251t269 97h61q168 -1 268 -97t101 -251v-635zM467 1534
q0 -41 -29 -72q-28 -30 -70 -30t-70 30t-28 71q0 42 28 71q28 28 71 28t71 -28t27 -70zM774 1534q0 -41 -30 -72q-30 -30 -72 -30t-69 30q-28 30 -28 71q0 42 29 71q29 28 71 28q43 0 71 -28t28 -70z" />
    <glyph glyph-name="multiply" unicode="&#xd7;" 
d="M885 188l-60 -59q-12 -16 -28 0l-260 262q-14 12 -29 0l-260 -262q-16 -16 -29 0l-59 59q-16 12 0 29l262 260q12 14 0 29l-262 260q-16 16 0 29l59 59q12 16 29 0l260 -262q14 -12 29 0l260 262q16 16 28 0l60 -59q16 -12 0 -29l-262 -260q-12 -14 0 -29l262 -260
q16 -17 0 -29z" />
    <glyph glyph-name="Oslash" unicode="&#xd8;" 
d="M737 328v612q0 29 -12 29t-20 -23l-304 -708q-18 -41 -18 -50q0 -16 34 -30t75 -15h61q76 1 130 55t54 130zM668 1099q0 13 -35 30t-80 18h-61q-76 0 -130 -54t-55 -130v-639q0 -18 10 -19q14 0 19 12l317 734q15 35 15 48zM922 328q0 -156 -100 -252t-269 -96h-61
q-168 0 -269 96q-100 96 -100 252v635q0 155 100 251t269 97h61q168 -1 268 -97t101 -251v-635z" />
    <glyph glyph-name="Ugrave" unicode="&#xd9;" 
d="M922 328q0 -156 -100 -252t-269 -96h-61q-168 0 -269 96q-100 96 -100 252v942q0 20 20 20h144q20 0 20 -20v-942q0 -76 54 -130t131 -55h61q76 1 130 55t54 130v942q0 20 21 20h143q20 0 21 -20v-942zM604 1407h-100q-16 0 -33 12l-260 207q-14 10 -6 17q8 8 14 8h211
q14 0 27 -15l157 -206q14 -23 -10 -23z" />
    <glyph glyph-name="Uacute" unicode="&#xda;" 
d="M922 328q0 -156 -100 -252t-269 -96h-61q-168 0 -269 96q-100 96 -100 252v942q0 20 20 20h144q20 0 20 -20v-942q0 -76 54 -130t131 -55h61q76 1 130 55t54 130v942q0 20 21 20h143q20 0 21 -20v-942zM539 1407h-101q-25 0 -10 23l158 206q12 14 26 15h211q10 0 14 -10
q2 -9 -6 -15l-260 -207q-14 -12 -32 -12z" />
    <glyph glyph-name="Ucircumflex" unicode="&#xdb;" 
d="M922 328q0 -156 -100 -252t-269 -96h-61q-168 0 -269 96q-100 96 -100 252v942q0 20 20 20h144q20 0 20 -20v-942q0 -76 54 -130t131 -55h61q76 1 130 55t54 130v942q0 20 21 20h143q20 0 21 -20v-942zM631 1403q-12 0 -21 12l-73 111q-14 25 -29 0l-74 -111
q-10 -12 -20 -12h-109q-27 0 -12 22l166 230q6 10 20 10h86q14 0 21 -10l166 -230q14 -23 -13 -22h-108z" />
    <glyph glyph-name="Udieresis" unicode="&#xdc;" 
d="M922 328q0 -156 -100 -252t-269 -96h-61q-168 0 -269 96q-100 96 -100 252v942q0 20 20 20h144q20 0 20 -20v-942q0 -76 54 -130t131 -55h61q76 1 130 55t54 130v942q0 20 21 20h143q20 0 21 -20v-942zM467 1534q0 -41 -29 -72q-28 -30 -70 -30t-70 30t-28 71q0 42 28 71
q28 28 71 28t71 -28t27 -70zM774 1534q0 -41 -30 -72q-30 -30 -72 -30t-69 30q-28 30 -28 71q0 42 29 71q29 28 71 28q43 0 71 -28t28 -70z" />
    <glyph glyph-name="Yacute" unicode="&#xdd;" horiz-adv-x="921" 
d="M913 1274q0 -4 -18 -41l-328 -612q-14 -29 -14 -64v-537q0 -20 -21 -20h-143q-20 0 -20 20v539q0 35 -15 62l-334 622q-12 25 -12 31q0 16 23 16h168q10 0 18 -12l225 -467q6 -16 18 -16t19 16l226 467q8 12 18 12h168q22 0 22 -16zM455 1407h-101q-25 0 -10 23l158 206
q12 14 26 15h211q9 1 13 -9t-4 -16l-261 -207q-16 -12 -32 -12z" />
    <glyph glyph-name="Thorn" unicode="&#xde;" horiz-adv-x="993" 
d="M768 676v20q0 76 -54 130t-130 55h-226q-20 0 -20 -21v-348q0 -20 20 -20h226q76 0 130 54t54 130zM952 684q0 -160 -101 -258t-267 -98h-226q-20 0 -20 -21v-287q0 -20 -21 -20h-143q-20 0 -20 20v1250q0 20 20 20h143q20 0 21 -20v-205q0 -20 24 -21h222
q168 0 268 -100t100 -260z" />
    <glyph glyph-name="germandbls" unicode="&#xdf;" horiz-adv-x="987" 
d="M901 344q0 -127 -58 -215t-167 -125q-63 -23 -123 -22q-20 0 -21 20v123q0 16 17 20q76 11 122 63t46 120v61q0 68 -46 119t-122 63q-16 4 -17 21v127q0 16 17 20q76 11 122 63t46 120v41q0 76 -54 130q-53 54 -133 54t-131 -53t-51 -131v-943q0 -20 -20 -20h-144
q-20 0 -20 20v625q0 20 -21 21h-51q-20 0 -20 20v123q0 20 20 20h51q20 0 21 21v92q0 154 108 262t268 107t260 -101t101 -268v-41q0 -59 -39 -128t-90 -103q-10 -6 -10 -14t10 -19q51 -37 90 -110t39 -132v-51z" />
    <glyph glyph-name="agrave" unicode="&#xe0;" horiz-adv-x="972" 
d="M655 358q0 20 -20 21h-236q-39 0 -65 -26t-25 -64v-33q0 -39 26 -66t64 -26h80q59 0 113 46q53 46 63 103v45zM840 20q0 -20 -21 -20h-123q-20 0 -20 20v27q0 25 -19 25q-4 0 -16 -9q-78 -63 -162 -63h-80q-117 0 -195 72t-77 184v12q0 115 78 185t194 69h236q20 0 20 21
v57q0 76 -54 128t-132 52q-104 0 -170 -114q-6 -12 -12 -12t-39 16l-103 53q-12 6 -12 19t41 67q98 133 280 133t284 -94q101 -94 102 -248v-580zM571 1051q0 -16 -20 -17h-70q-23 0 -49 23l-235 231q-16 12 -17 27q0 16 23 16h153q37 0 54 -24l145 -224q16 -26 16 -32z" />
    <glyph glyph-name="aacute" unicode="&#xe1;" horiz-adv-x="972" 
d="M655 358q0 20 -20 21h-236q-39 0 -65 -26t-25 -64v-33q0 -39 26 -66t64 -26h80q59 0 113 46q53 46 63 103v45zM840 20q0 -20 -21 -20h-123q-20 0 -20 20v27q0 25 -19 25q-4 0 -16 -9q-78 -63 -162 -63h-80q-117 0 -195 72t-77 184v12q0 115 78 185t194 69h236q20 0 20 21
v57q0 76 -54 128t-132 52q-104 0 -170 -114q-6 -12 -12 -12t-39 16l-103 53q-12 6 -12 19t41 67q98 133 280 133t284 -94q101 -94 102 -248v-580zM801 1315q0 -10 -8 -19l-244 -239q-27 -23 -49 -23h-70q-20 0 -20 17q0 10 18 36l143 220q14 25 54 24h153q23 0 23 -16z" />
    <glyph glyph-name="acircumflex" unicode="&#xe2;" horiz-adv-x="972" 
d="M655 358q0 20 -20 21h-236q-39 0 -65 -26t-25 -64v-33q0 -39 26 -66t64 -26h80q59 0 113 46q53 46 63 103v45zM840 20q0 -20 -21 -20h-123q-20 0 -20 20v27q0 25 -19 25q-4 0 -16 -9q-78 -63 -162 -63h-80q-117 0 -195 72t-77 184v12q0 115 78 185t194 69h236q20 0 20 21
v57q0 76 -54 128t-132 52q-104 0 -170 -114q-6 -12 -12 -12t-39 16l-103 53q-12 6 -12 19t41 67q98 133 280 133t284 -94q101 -94 102 -248v-580zM733 1051q0 -16 -22 -17h-99q-10 0 -16 10l-90 140q-6 12 -16 12t-15 -12l-88 -140q-6 -10 -16 -10h-99q-23 0 -22 17
q0 6 6 16l182 256q8 8 17 8h73q8 0 17 -8l182 -256q6 -10 6 -16z" />
    <glyph glyph-name="atilde" unicode="&#xe3;" horiz-adv-x="972" 
d="M655 358q0 20 -20 21h-236q-39 0 -65 -26t-25 -64v-33q0 -39 26 -66t64 -26h80q59 0 113 46q53 46 63 103v45zM840 20q0 -20 -21 -20h-123q-20 0 -20 20v27q0 25 -19 25q-4 0 -16 -9q-78 -63 -162 -63h-80q-117 0 -195 72t-77 184v12q0 115 78 185t194 69h236q20 0 20 21
v57q0 76 -54 128t-132 52q-104 0 -170 -114q-6 -12 -12 -12t-39 16l-103 53q-12 6 -12 19t41 67q98 133 280 133t284 -94q101 -94 102 -248v-580zM786 1204q0 -12 -32 -57q-66 -90 -146 -90q-53 0 -129 51l-41 29q-93 68 -170 -31q-6 -8 -13 -8t-24 10l-36 27q-10 6 -11 16
q0 10 27 45q70 100 146 100t137 -49l38 -30q37 -27 64 -27q66 0 113 61q15 21 36 -2l33 -26q8 -7 8 -19z" />
    <glyph glyph-name="adieresis" unicode="&#xe4;" horiz-adv-x="972" 
d="M655 358q0 20 -20 21h-236q-39 0 -65 -26t-25 -64v-33q0 -39 26 -66t64 -26h80q59 0 113 46q53 46 63 103v45zM840 20q0 -20 -21 -20h-123q-20 0 -20 20v27q0 25 -19 25q-4 0 -16 -9q-78 -63 -162 -63h-80q-117 0 -195 72t-77 184v12q0 115 78 185t194 69h236q20 0 20 21
v57q0 76 -54 128t-132 52q-104 0 -170 -114q-6 -12 -12 -12t-39 16l-103 53q-12 6 -12 19t41 67q98 133 280 133t284 -94q101 -94 102 -248v-580zM432 1176q0 -41 -31 -72t-71 -31t-72 31q-31 31 -31 72q0 42 31 72t72 30q42 0 72 -30t30 -72zM754 1176q0 -41 -31 -72
t-72 -31t-71 31t-31 72q0 42 31 72q32 30 72 30t71 -30t31 -72z" />
    <glyph glyph-name="aring" unicode="&#xe5;" horiz-adv-x="972" 
d="M655 358q0 20 -20 21h-236q-39 0 -65 -26t-25 -64v-33q0 -39 26 -66t64 -26h80q59 0 113 46q53 46 63 103v45zM584 1208v62q0 36 -28 64t-64 28t-65 -28q-28 -28 -28 -64v-62q0 -36 28 -64t65 -28q36 0 64 28t28 64zM840 20q0 -20 -21 -20h-123q-20 0 -20 20v27
q0 25 -19 25q-4 0 -16 -9q-78 -63 -162 -63h-80q-117 0 -195 72t-77 184v12q0 115 78 185t194 69h236q20 0 20 21v57q0 76 -54 128t-132 52q-104 0 -170 -114q-6 -12 -12 -12t-39 16l-103 53q-12 6 -12 19t41 67q98 133 280 133t284 -94q101 -94 102 -248v-580zM676 1208
q0 -78 -50 -126t-134 -48t-135 48q-50 48 -50 126v62q0 78 50 126q51 48 135 48t134 -48t50 -126v-62z" />
    <glyph glyph-name="ae" unicode="&#xe6;" horiz-adv-x="1519" 
d="M680 348q0 20 -21 21h-256q-37 0 -65 -28t-27 -65v-40q0 -37 28 -65t64 -28h103q55 -1 103 45t71 103v57zM1233 594q0 76 -54 130t-130 54t-130 -54t-55 -130q0 -20 21 -21h327q21 1 21 21zM1417 451q0 -20 -20 -21h-512q-20 0 -21 -20v-82q0 -76 54 -130t131 -55
q113 0 172 119q6 12 15 12t26 -10l116 -59q12 -5 12 -17t-36 -67q-98 -141 -296 -141t-296 116q-10 10 -18 10t-15 -10q-35 -51 -103 -84t-120 -32h-103q-117 0 -197 72t-79 184v40q0 112 78 174t198 62h256q20 0 21 20v58q0 76 -54 130t-130 54q-115 0 -170 -115
q-6 -12 -18 -12t-32 12l-108 56q-12 6 -12 14t26 53q102 160 314 160q150 0 247 -82q31 -26 34 -26t34 24q98 84 248 84t254 -108t104 -240v-143z" />
    <glyph glyph-name="ccedilla" unicode="&#xe7;" horiz-adv-x="876" 
d="M813 180q0 -18 -59 -86q-84 -94 -217 -110q-18 -2 -29 -21l-14 -29q-18 -36 -2 -40q84 -41 83 -148v-16q0 -84 -59 -138t-147 -53h-99q-20 0 -20 21v82q0 20 20 20h99q29 0 48 20t19 48v16q0 66 -65 76l-37 6q-20 2 -20 14t18 49l35 72q10 25 -9 29q-120 31 -188 120
t-68 216v266q0 156 100 252t280 96q179 0 280 -123q49 -61 49 -77t-12 -23l-107 -53q-29 -14 -37 -14t-14 12q-57 115 -170 114q-76 0 -130 -54t-54 -130v-266q0 -76 54 -130t130 -55q113 0 172 119q6 12 13 12t28 -10l117 -59q12 -7 12 -25z" />
    <glyph glyph-name="egrave" unicode="&#xe8;" horiz-adv-x="942" 
d="M655 594q0 76 -54 130t-130 54t-130 -54t-54 -130q0 -20 20 -21h328q20 1 20 21zM840 451q0 -20 -21 -21h-512q-20 0 -20 -20v-82q0 -76 54 -130t130 -55q113 0 172 119q6 12 13 12t28 -10l117 -59q12 -6 12 -24t-59 -87q-100 -114 -276 -114t-275 96q-100 96 -101 252
v266q0 131 104 240q104 108 265 108q160 0 264 -108t105 -240v-143zM561 1051q0 -16 -20 -17h-70q-23 0 -49 23l-236 231q-16 12 -16 28t23 15h153q37 0 53 -24l146 -224q16 -26 16 -32z" />
    <glyph glyph-name="eacute" unicode="&#xe9;" horiz-adv-x="942" 
d="M655 594q0 76 -54 130t-130 54t-130 -54t-54 -130q0 -20 20 -21h328q20 1 20 21zM840 451q0 -20 -21 -21h-512q-20 0 -20 -20v-82q0 -76 54 -130t130 -55q113 0 172 119q6 12 13 12t28 -10l117 -59q12 -6 12 -24t-59 -87q-100 -114 -276 -114t-275 96q-100 96 -101 252
v266q0 131 104 240q104 108 265 108q160 0 264 -108t105 -240v-143zM791 1315q0 -10 -9 -19l-243 -239q-27 -23 -50 -23h-69q-41 0 -2 53l143 220q16 25 53 24h154q23 0 23 -16z" />
    <glyph glyph-name="ecircumflex" unicode="&#xea;" horiz-adv-x="942" 
d="M655 594q0 76 -54 130t-130 54t-130 -54t-54 -130q0 -20 20 -21h328q20 1 20 21zM840 451q0 -20 -21 -21h-512q-20 0 -20 -20v-82q0 -76 54 -130t130 -55q113 0 172 119q6 12 13 12t28 -10l117 -59q12 -6 12 -24t-59 -87q-100 -114 -276 -114t-275 96q-100 96 -101 252
v266q0 131 104 240q104 108 265 108q160 0 264 -108t105 -240v-143zM723 1051q0 -16 -23 -17h-98q-10 0 -16 10l-90 140q-6 12 -16 12t-15 -12l-88 -140q-6 -10 -17 -10h-98q-23 0 -22 17q0 6 6 16l182 256q8 8 16 8h74q8 0 17 -8l182 -256q6 -10 6 -16z" />
    <glyph glyph-name="edieresis" unicode="&#xeb;" horiz-adv-x="942" 
d="M655 594q0 76 -54 130t-130 54t-130 -54t-54 -130q0 -20 20 -21h328q20 1 20 21zM840 451q0 -20 -21 -21h-512q-20 0 -20 -20v-82q0 -76 54 -130t130 -55q113 0 172 119q6 12 13 12t28 -10l117 -59q12 -6 12 -24t-59 -87q-100 -114 -276 -114t-275 96q-100 96 -101 252
v266q0 131 104 240q104 108 265 108q160 0 264 -108t105 -240v-143zM422 1176q0 -41 -31 -72t-72 -31t-71 31t-31 72q0 42 31 72q32 30 72 30t71 -30t31 -72zM743 1176q-1 -41 -31 -72t-71 -31t-72 31t-30 72q1 42 31 72t71 30t71 -30t31 -72z" />
    <glyph glyph-name="igrave" unicode="&#xec;" horiz-adv-x="450" 
d="M317 20q0 -20 -20 -20h-143q-20 0 -21 20v881q0 20 21 21h143q20 0 20 -21v-881zM313 1051q0 -16 -20 -17h-70q-23 0 -49 23l-235 231q-16 12 -17 27q0 16 23 16h153q37 0 54 -24l145 -224q16 -26 16 -32z" />
    <glyph glyph-name="iacute" unicode="&#xed;" horiz-adv-x="450" 
d="M317 20q0 -20 -20 -20h-143q-20 0 -21 20v881q0 20 21 21h143q20 0 20 -21v-881zM543 1315q0 -10 -8 -19l-244 -239q-27 -23 -49 -23h-70q-20 0 -20 17q0 10 18 36l143 220q14 25 54 24h153q23 0 23 -16z" />
    <glyph glyph-name="icircumflex" unicode="&#xee;" horiz-adv-x="450" 
d="M317 20q0 -20 -20 -20h-143q-20 0 -21 20v881q0 20 21 21h143q20 0 20 -21v-881zM475 1051q0 -16 -22 -17h-99q-10 0 -16 10l-90 140q-6 12 -16 12t-15 -12l-88 -140q-6 -10 -16 -10h-99q-23 0 -22 17q0 6 6 16l182 256q8 8 17 8h73q8 0 17 -8l182 -256q6 -10 6 -16z" />
    <glyph glyph-name="idieresis" unicode="&#xef;" horiz-adv-x="450" 
d="M317 20q0 -20 -20 -20h-143q-20 0 -21 20v881q0 20 21 21h143q20 0 20 -21v-881zM174 1176q0 -41 -31 -72t-71 -31t-72 31q-31 31 -31 72q0 42 31 72t72 30q42 0 72 -30t30 -72zM496 1176q0 -41 -31 -72t-72 -31t-71 31t-31 72q0 42 31 72q32 30 72 30t71 -30t31 -72z
" />
    <glyph glyph-name="eth" unicode="&#xf0;" horiz-adv-x="942" 
d="M657 328v266q0 76 -54 130t-130 54t-130 -54t-54 -130v-266q0 -76 54 -130t130 -54t130 54t54 130zM842 328q0 -156 -100 -252t-269 -96q-168 0 -268 96t-101 252v266q0 146 90 240t238 106l-98 96l-197 -82q-10 -4 -19 -1t-9 12v53q0 29 12 33l139 57l-156 156
q-10 10 -2 18t23 8h151q6 0 21 -14l106 -107l211 91q8 4 18 0t11 -13v-59q0 -20 -16 -27l-150 -63l260 -246q104 -96 105 -258v-266z" />
    <glyph glyph-name="ntilde" unicode="&#xf1;" horiz-adv-x="1003" 
d="M870 20q0 -20 -20 -20h-143q-20 0 -21 20v553q0 76 -54 130q-54 55 -130 55t-130 -54t-55 -131v-553q0 -20 -20 -20h-143q-20 0 -21 20v881q0 20 21 21h122q20 0 21 -21v-24q0 -25 16 -25q4 0 17 8q74 61 172 62q168 0 268 -96t100 -253v-553zM817 1204q0 -12 -33 -57
q-66 -90 -145 -90q-53 0 -129 51l-41 29q-37 27 -82 27t-88 -58q-6 -8 -13 -8t-24 10l-37 27q-10 6 -10 16t27 45q70 100 146 100t136 -49l39 -30q37 -27 64 -27q66 0 112 61q16 21 37 -2l33 -26q8 -7 8 -19z" />
    <glyph glyph-name="ograve" unicode="&#xf2;" horiz-adv-x="942" 
d="M655 328v266q0 76 -54 130t-130 54t-130 -54t-54 -130v-266q0 -76 54 -130t130 -54t130 54t54 130zM840 328q0 -156 -100 -252t-269 -96q-168 0 -268 96t-101 252v266q0 156 100 252t269 96q168 0 268 -96t101 -252v-266zM561 1051q0 -16 -20 -17h-70q-23 0 -49 23
l-236 231q-16 12 -16 28t23 15h153q37 0 53 -24l146 -224q16 -26 16 -32z" />
    <glyph glyph-name="oacute" unicode="&#xf3;" horiz-adv-x="942" 
d="M655 328v266q0 76 -54 130t-130 54t-130 -54t-54 -130v-266q0 -76 54 -130t130 -54t130 54t54 130zM840 328q0 -156 -100 -252t-269 -96q-168 0 -268 96t-101 252v266q0 156 100 252t269 96q168 0 268 -96t101 -252v-266zM791 1315q0 -10 -9 -19l-243 -239
q-27 -23 -50 -23h-69q-41 0 -2 53l143 220q16 25 53 24h154q23 0 23 -16z" />
    <glyph glyph-name="ocircumflex" unicode="&#xf4;" horiz-adv-x="942" 
d="M655 328v266q0 76 -54 130t-130 54t-130 -54t-54 -130v-266q0 -76 54 -130t130 -54t130 54t54 130zM840 328q0 -156 -100 -252t-269 -96q-168 0 -268 96t-101 252v266q0 156 100 252t269 96q168 0 268 -96t101 -252v-266zM723 1051q0 -16 -23 -17h-98q-10 0 -16 10
l-90 140q-6 12 -16 12t-15 -12l-88 -140q-6 -10 -17 -10h-98q-23 0 -22 17q0 6 6 16l182 256q8 8 16 8h74q8 0 17 -8l182 -256q6 -10 6 -16z" />
    <glyph glyph-name="otilde" unicode="&#xf5;" horiz-adv-x="942" 
d="M655 328v266q0 76 -54 130t-130 54t-130 -54t-54 -130v-266q0 -76 54 -130t130 -54t130 54t54 130zM840 328q0 -156 -100 -252t-269 -96q-168 0 -268 96t-101 252v266q0 156 100 252t269 96q168 0 268 -96t101 -252v-266zM776 1204q0 -12 -33 -57q-66 -90 -145 -90
q-53 0 -129 51l-41 29q-37 27 -82 27t-88 -58q-6 -8 -13 -8t-24 10l-37 27q-10 6 -10 16t27 45q69 100 145 100t137 -49l39 -30q37 -27 64 -27q66 0 112 61q16 21 37 -2l33 -26q8 -7 8 -19z" />
    <glyph glyph-name="odieresis" unicode="&#xf6;" horiz-adv-x="942" 
d="M655 328v266q0 76 -54 130t-130 54t-130 -54t-54 -130v-266q0 -76 54 -130t130 -54t130 54t54 130zM840 328q0 -156 -100 -252t-269 -96q-168 0 -268 96t-101 252v266q0 156 100 252t269 96q168 0 268 -96t101 -252v-266zM422 1176q0 -41 -31 -72t-72 -31t-71 31t-31 72
q0 42 31 72q32 30 72 30t71 -30t31 -72zM743 1176q-1 -41 -31 -72t-71 -31t-72 31t-30 72q1 42 31 72t71 30t71 -30t31 -72z" />
    <glyph glyph-name="divide" unicode="&#xf7;" 
d="M635 174q0 -47 -33 -80t-80 -33t-80 33t-32 80q0 47 32 80q33 33 80 33t80 -33t33 -80zM952 451q0 -20 -20 -21h-819q-20 0 -21 21v81q0 20 21 21h819q20 0 20 -21v-81zM635 809q0 -47 -33 -80t-80 -33t-80 33t-32 80q0 47 32 80q33 33 80 33t80 -33t33 -80z" />
    <glyph glyph-name="oslash" unicode="&#xf8;" horiz-adv-x="942" 
d="M541 752q0 26 -73 26t-127 -54t-54 -130v-266q0 -74 28 -74q12 0 19 14l194 449q13 33 13 35zM655 328v266q0 43 -11 70t-26 26q-12 0 -18 -14l-194 -463q-12 -33 -12 -42t23 -18q24 -9 54 -10q76 1 130 55t54 130zM840 328q0 -156 -100 -252t-269 -96q-168 0 -268 96
t-101 252v266q0 156 100 252t269 96q168 0 268 -96t101 -252v-266z" />
    <glyph glyph-name="ugrave" unicode="&#xf9;" horiz-adv-x="983" 
d="M850 20q0 -20 -21 -20h-122q-20 0 -21 20v25q0 25 -18 25q-4 0 -17 -9q-74 -61 -170 -61q-168 0 -268 96t-100 252v553q0 20 20 21h143q20 0 21 -21v-553q0 -76 54 -130t130 -54t130 54t55 130v553q0 20 20 21h143q20 0 21 -21v-881zM563 1051q0 -16 -20 -17h-70
q-23 0 -49 23l-236 231q-16 12 -16 28t23 15h153q37 0 53 -24l146 -224q16 -26 16 -32z" />
    <glyph glyph-name="uacute" unicode="&#xfa;" horiz-adv-x="983" 
d="M850 20q0 -20 -21 -20h-122q-20 0 -21 20v25q0 25 -18 25q-4 0 -17 -9q-74 -61 -170 -61q-168 0 -268 96t-100 252v553q0 20 20 21h143q20 0 21 -21v-553q0 -76 54 -130t130 -54t130 54t55 130v553q0 20 20 21h143q20 0 21 -21v-881zM793 1315q0 -10 -9 -19l-243 -239
q-27 -23 -49 -23h-70q-41 0 -2 53l143 220q14 25 53 24h154q23 0 23 -16z" />
    <glyph glyph-name="ucircumflex" unicode="&#xfb;" horiz-adv-x="983" 
d="M850 20q0 -20 -21 -20h-122q-20 0 -21 20v25q0 25 -18 25q-4 0 -17 -9q-74 -61 -170 -61q-168 0 -268 96t-100 252v553q0 20 20 21h143q20 0 21 -21v-553q0 -76 54 -130t130 -54t130 54t55 130v553q0 20 20 21h143q20 0 21 -21v-881zM725 1051q0 -16 -23 -17h-98
q-10 0 -16 10l-90 140q-6 12 -16 12t-15 -12l-88 -140q-6 -10 -17 -10h-98q-23 0 -22 17q0 6 6 16l182 256q8 8 16 8h74q8 0 17 -8l182 -256q6 -10 6 -16z" />
    <glyph glyph-name="udieresis" unicode="&#xfc;" horiz-adv-x="983" 
d="M850 20q0 -20 -21 -20h-122q-20 0 -21 20v25q0 25 -18 25q-4 0 -17 -9q-74 -61 -170 -61q-168 0 -268 96t-100 252v553q0 20 20 21h143q20 0 21 -21v-553q0 -76 54 -130t130 -54t130 54t55 130v553q0 20 20 21h143q20 0 21 -21v-881zM424 1176q0 -41 -31 -72t-71 -31
t-72 31q-31 31 -31 72q0 42 31 72t72 30q42 0 72 -30t30 -72zM745 1176q-1 -41 -31 -72t-71 -31t-72 31t-30 72q1 42 31 72t71 30t71 -30t31 -72z" />
    <glyph glyph-name="yacute" unicode="&#xfd;" horiz-adv-x="983" 
d="M850 -113q0 -166 -95 -267t-277 -101t-281 114q-57 63 -58 93q0 10 13 16l106 53q29 15 37 15t14 -13q55 -115 172 -114q76 0 130 54t55 130v170q0 25 -19 24q-10 0 -18 -8q-59 -53 -148 -53q-168 0 -268 96t-100 252v553q0 20 20 21h143q20 0 21 -21v-553q0 -76 54 -130
t130 -54t130 54t55 130v553q0 20 20 21h143q20 0 21 -21v-1014zM809 1315q0 -10 -8 -19l-244 -239q-27 -23 -49 -23h-70q-20 0 -20 17q0 10 18 36l144 220q14 25 53 24h153q23 0 23 -16z" />
    <glyph glyph-name="thorn" unicode="&#xfe;" horiz-adv-x="972" 
d="M686 348v225q0 76 -54 130q-54 55 -130 55t-130 -54t-55 -131v-225q1 -76 55 -130t130 -54t130 54t54 130zM870 348q0 -152 -100 -250t-248 -98q-98 0 -172 61q-12 9 -22 9t-11 -25v-485q0 -20 -20 -21h-143q-20 0 -21 21v1710q0 20 21 20h122q20 0 21 -20v-393
q0 -25 14 -25q6 0 19 8q74 61 172 62q168 0 268 -96t100 -253v-225z" />
    <glyph glyph-name="ydieresis" unicode="&#xff;" horiz-adv-x="983" 
d="M850 -113q0 -166 -95 -267t-277 -101t-281 114q-57 63 -58 93q0 10 13 16l106 53q29 15 37 15t14 -13q55 -115 172 -114q76 0 130 54t55 130v170q0 25 -19 24q-10 0 -18 -8q-59 -53 -148 -53q-168 0 -268 96t-100 252v553q0 20 20 21h143q20 0 21 -21v-553q0 -76 54 -130
t130 -54t130 54t55 130v553q0 20 20 21h143q20 0 21 -21v-1014zM424 1176q0 -41 -31 -72t-71 -31t-72 31q-31 31 -31 72q0 42 31 72t72 30q42 0 72 -30t30 -72zM745 1176q-1 -41 -31 -72t-71 -31t-72 31t-30 72q1 42 31 72t71 30t71 -30t31 -72z" />
    <glyph glyph-name="dotlessi" unicode="&#x131;" horiz-adv-x="450" 
d="M317 20q0 -20 -20 -20h-143q-20 0 -21 20v881q0 20 21 21h143q20 0 20 -21v-881z" />
    <glyph glyph-name="Lslash" unicode="&#x141;" horiz-adv-x="931" 
d="M891 20q0 -20 -21 -20h-696q-20 0 -20 20v416q0 37 -29 6l-27 -26q-6 -6 -14 -6t-14 6l-82 82q-6 6 -6 14t6 14l145 146q20 20 21 59v539q0 20 20 20h143q20 0 21 -20v-361q0 -16 9 -16t18 8l53 53q15 15 28 0l80 -80q6 -6 6 -15t-6 -15l-166 -166q-23 -23 -22 -57v-437
q0 -20 20 -20h512q20 0 21 -21v-123z" />
    <glyph glyph-name="lslash" unicode="&#x142;" horiz-adv-x="450" 
d="M512 859q0 -9 -6 -15l-166 -166q-23 -23 -23 -57v-601q0 -20 -20 -20h-143q-20 0 -21 20v416q0 35 -29 6l-26 -26q-6 -6 -14 -6t-15 6l-82 82q-6 6 -6 14t6 14l146 146q20 20 20 59v539q0 20 21 20h143q20 0 20 -20v-361q0 -16 13 -16q6 0 14 8l53 53q16 16 29 0l80 -80
q6 -6 6 -15z" />
    <glyph glyph-name="OE" unicode="&#x152;" horiz-adv-x="1566" 
d="M737 328v635q0 76 -54 130t-130 54h-61q-76 0 -130 -54t-55 -130v-635q0 -76 54 -130t131 -55h61q76 1 130 55t54 130zM1475 20q0 -20 -21 -20h-764q-68 -20 -137 -20h-61q-168 0 -269 96q-100 96 -100 252v635q0 155 100 251t269 97h61q72 0 133 -21h768q20 0 21 -20
v-123q0 -20 -21 -21h-536q-20 0 -21 -16q0 -4 12 -37t13 -110v-205q0 -20 20 -21h420q20 0 20 -20v-123q0 -20 -20 -21h-420q-20 0 -20 -20v-225q0 -68 -12 -106t-13 -42q0 -16 21 -16h536q20 0 21 -21v-123z" />
    <glyph glyph-name="oe" unicode="&#x153;" horiz-adv-x="1495" 
d="M655 328v266q0 76 -54 130t-130 54t-130 -54t-54 -130v-266q0 -76 54 -130t130 -54t130 54t54 130zM1208 594q0 76 -54 130t-127 54t-121 -43t-70 -100q4 -21 4 -41t20 -21h328q20 1 20 21zM1393 451q0 -20 -21 -21h-512q-20 0 -20 -20v-82q0 -16 -4 -37
q68 -147 184 -147t176 118q6 12 13 12t36 -14l109 -55q12 -6 12 -23t-53 -82q-100 -121 -289 -120q-152 0 -248 77q-25 21 -31 21t-26 -17q-98 -81 -257 -81t-259 96t-101 252v266q0 156 100 252t262 96q161 0 259 -82q29 -22 34 -22t27 22q102 82 251 82t253 -108t105 -240
v-143z" />
    <glyph glyph-name="Scaron" unicode="&#x160;" horiz-adv-x="950" 
d="M868 328q0 -156 -100 -252t-268 -96h-86q-215 0 -310 149q-28 45 -28 58t10 18l104 53q27 16 37 16t17 -14q26 -55 72 -86t98 -31h86q76 1 130 55t54 130q0 101 -107 168q-42 26 -123 64t-116 55t-88 53t-81 74q-71 93 -71 235q0 141 100 237t269 97h33q211 0 311 -150
q29 -43 29 -55t-13 -19l-110 -55q-25 -12 -33 -12t-14 12q-57 115 -170 115h-33q-76 0 -130 -54t-54 -129q0 -102 134 -167q30 -15 43 -21t86 -39q239 -108 296 -255q26 -68 26 -154zM524 1403h-86q-14 0 -20 10l-166 229q-14 23 12 23h109q12 0 20 -12l74 -111q14 -25 29 0
l73 111q8 12 21 12h108q27 0 13 -23l-166 -229q-6 -10 -21 -10z" />
    <glyph glyph-name="scaron" unicode="&#x161;" horiz-adv-x="901" 
d="M815 289q0 -131 -89 -220t-249 -89h-61q-195 0 -291 124q-43 54 -43 72t12 25l107 53q20 10 26 10t13 -12q26 -49 74 -82t102 -33h61q74 0 115 36t41 77q-1 41 -15 55q-14 15 -23 23t-39 19t-71 20q-40 8 -69 14q-30 6 -68 13q-187 34 -238 135q-24 46 -24 112
q0 139 95 220t235 81h61q203 0 299 -137q35 -51 35 -65t-12 -19l-99 -49q-28 -14 -34 -14t-13 12q-25 49 -73 82q-49 33 -103 32h-61q-150 0 -150 -110q0 -33 22 -56t42 -31q20 -7 32 -11t38 -11q26 -5 48 -11q22 -4 80 -16q210 -38 264 -140q23 -46 23 -109zM682 1315
q0 -8 -6 -17l-182 -256q-8 -8 -17 -8h-74q-8 0 -16 8l-182 256q-6 8 -6 17q0 16 22 16h98q10 0 17 -10l88 -139q6 -12 15 -12t16 12l90 139q6 10 16 10h98q23 0 23 -16z" />
    <glyph glyph-name="Ydieresis" unicode="&#x178;" horiz-adv-x="921" 
d="M913 1274q0 -4 -18 -41l-328 -612q-14 -29 -14 -64v-537q0 -20 -21 -20h-143q-20 0 -20 20v539q0 35 -15 62l-334 622q-12 25 -12 31q0 16 23 16h168q10 0 18 -12l225 -467q6 -16 18 -16t19 16l226 467q8 12 18 12h168q22 0 22 -16zM408 1534q0 -41 -29 -72
q-29 -30 -71 -30t-70 30t-27 71q0 42 28 71q29 28 71 28t70 -28t28 -70zM715 1534q0 -41 -30 -72q-30 -30 -72 -30q-41 0 -69 30t-28 71q0 42 29 71q29 28 71 28t70 -28q29 -28 29 -70z" />
    <glyph glyph-name="Zcaron" unicode="&#x17d;" horiz-adv-x="901" 
d="M819 20q0 -20 -20 -20h-729q-20 0 -21 16q0 4 19 50l450 1005q14 29 14 39q0 16 -20 16h-410q-20 0 -20 21v123q0 20 20 20h686q20 0 20 -12t-17 -53l-451 -1000q-16 -39 -16 -45q0 -16 20 -16h455q20 0 20 -21v-123zM465 1403h-86q-14 0 -21 10l-165 229q-14 23 12 23
h108q10 0 21 -12l74 -111q14 -25 28 0l74 111q10 12 20 12h109q26 0 12 -23l-166 -229q-6 -10 -20 -10z" />
    <glyph glyph-name="zcaron" unicode="&#x17e;" horiz-adv-x="880" 
d="M807 20q0 -20 -21 -20h-714q-23 0 -23 16q0 6 25 50l383 639q16 27 16 34q0 16 -22 17h-359q-20 0 -20 20v123q0 20 20 21h678q23 0 23 -17q0 -8 -19 -39l-389 -645q-18 -33 -18 -39q0 -16 22 -16h397q20 0 21 -21v-123zM670 1315q0 -8 -6 -17l-183 -256q-8 -8 -16 -8
h-74q-8 0 -16 8l-182 256q-7 8 -7 20t23 13h98q10 0 17 -10l88 -139q6 -12 15 -12t15 12l90 139q6 10 17 10h98q23 0 23 -16z" />
    <glyph glyph-name="florin" unicode="&#x192;" 
d="M393 -133v686q0 20 -20 20h-51q-20 0 -21 21v123q0 20 21 20h51q20 0 20 21v184q0 154 108 262t261 107q112 0 112 -25l-10 -37l-33 -92q-6 -14 -16 -14l-53 4q-76 0 -130 -54t-54 -130v-205q0 -20 20 -21h143q20 0 21 -20v-123q0 -20 -21 -21h-143q-20 0 -20 -20v-666
q0 -153 -108 -261t-261 -107q-109 0 -111 24q0 6 13 39l30 90q6 14 17 15l51 -4q76 0 130 54t54 130z" />
    <glyph glyph-name="circumflex" unicode="&#x2c6;" horiz-adv-x="1024" 
d="M756 1051q0 -16 -23 -17h-98q-10 0 -17 10l-90 140q-6 12 -15 12t-15 -12l-88 -140q-6 -10 -17 -10h-98q-23 0 -23 17q0 6 7 16l182 256q8 8 16 8h74q8 0 16 -8l183 -256q6 -10 6 -16z" />
    <glyph glyph-name="caron" unicode="&#x2c7;" horiz-adv-x="1024" 
d="M756 1315q0 -8 -6 -17l-183 -256q-8 -8 -16 -8h-74q-8 0 -16 8l-182 256q-7 8 -7 20t23 13h98q10 0 17 -10l88 -139q6 -12 15 -12t15 12l90 139q6 10 17 10h98q23 0 23 -16z" />
    <glyph glyph-name="breve" unicode="&#x2d8;" horiz-adv-x="1024" 
d="M743 1208q0 -78 -50 -126t-134 -48h-92q-84 0 -134 48t-50 126v103q0 20 20 20h51q20 0 21 -20v-62q-1 -37 27 -65t65 -27h92q37 0 65 28t27 64v62q0 20 21 20h51q20 0 20 -20v-103z" />
    <glyph glyph-name="dotaccent" unicode="&#x2d9;" horiz-adv-x="1024" 
d="M639 1151q0 -51 -34 -82t-89 -31t-89 31t-34 82v61q0 51 34 82t89 31t89 -31t34 -82v-61z" />
    <glyph glyph-name="ring" unicode="&#x2da;" horiz-adv-x="1024" 
d="M606 1208v62q0 36 -28 64t-64 28t-64 -28t-28 -64v-62q0 -36 28 -64t64 -28t64 28t28 64zM698 1208q0 -78 -50 -126t-134 -48t-134 48t-50 126v62q0 78 50 126t134 48t134 -48t50 -126v-62z" />
    <glyph glyph-name="ogonek" unicode="&#x2db;" horiz-adv-x="1024" 
d="M719 -438q0 -20 -19 -21q-57 0 -125 41q-133 78 -133 234v225q0 20 21 20h98q20 0 21 -20v-240q0 -51 32 -89t88 -48q16 -4 17 -20v-82z" />
    <glyph glyph-name="tilde" unicode="&#x2dc;" horiz-adv-x="1024" 
d="M813 1204q0 -12 -33 -57q-66 -90 -145 -90q-53 0 -129 51l-41 29q-37 27 -82 27t-88 -58q-6 -8 -13 -8t-24 10l-37 27q-10 6 -10 16t27 45q70 100 146 100t136 -49l39 -30q37 -27 64 -27q66 0 112 61q16 21 37 -2l33 -26q8 -7 8 -19z" />
    <glyph glyph-name="hungarumlaut" unicode="&#x2dd;" horiz-adv-x="1024" 
d="M580 1315q0 -6 -19 -39l-131 -232q-6 -10 -18 -10h-43q-20 0 -21 17l88 266q4 14 19 14h102q23 0 23 -16zM807 1315q0 -6 -19 -39l-131 -232q-6 -10 -18 -10h-43q-20 0 -21 17l89 266q4 14 18 14h102q23 0 23 -16z" />
    <glyph glyph-name="Delta" unicode="&#x394;" horiz-adv-x="1253" 
d="M991 100l-397 959l-447 -959h844zM1245 0h-1233l656 1409z" />
    <glyph glyph-name="Omega" unicode="&#x3a9;" horiz-adv-x="1572" 
d="M1507 0h-604l33 311q104 45 149 88t93 151t49 273q0 231 -108 375t-331 145q-222 0 -330 -144t-108 -376q0 -166 48 -273q48 -106 94 -150t149 -89l33 -311h-604v332h30q16 -72 42 -99t94 -26h323l-4 57q-121 35 -201 84t-141 139q-102 154 -102 328q0 274 198 434
q199 160 479 160t480 -160q199 -160 198 -434q0 -174 -102 -328q-61 -90 -141 -139t-201 -84l-4 -57h323q68 1 94 27t42 98h30v-332z" />
    <glyph glyph-name="pi" unicode="&#x3c0;" horiz-adv-x="1124" 
d="M643 354q0 145 43 467h-231q-45 -502 -95 -719q-35 -141 -133 -141q-45 0 -77 33t-33 78q0 45 72 129q73 84 81 151l60 469h-97q-45 0 -79 -20q-34 -19 -52 -39q-16 -20 -47 -70h-35q45 130 87 191q79 116 198 114h764v-176h-258q-25 -240 -25 -481q0 -70 34 -127t98 -57
t98 56q14 24 19 57q5 32 7 40h43q-4 -127 -66 -235t-178 -107q-116 0 -175 174q-23 68 -23 213z" />
    <glyph glyph-name="endash" unicode="&#x2013;" horiz-adv-x="1146" 
d="M1055 451q0 -20 -21 -21h-921q-20 0 -21 21v81q0 20 21 21h921q20 0 21 -21v-81z" />
    <glyph glyph-name="emdash" unicode="&#x2014;" horiz-adv-x="1699" 
d="M1608 451q0 -20 -21 -21h-1474q-20 0 -21 21v81q0 20 21 21h1474q20 0 21 -21v-81z" />
    <glyph glyph-name="quoteleft" unicode="&#x2018;" horiz-adv-x="362" 
d="M299 1294q0 -8 -10 -14q-76 -43 -76 -170q0 -18 20 -18h23q20 0 20 -21v-137q0 -20 -20 -21h-154q-20 0 -20 21v119q0 180 86 266q56 55 76 55t26 -12l19 -39q10 -21 10 -29z" />
    <glyph glyph-name="quoteright" unicode="&#x2019;" horiz-adv-x="362" 
d="M281 1151q0 -180 -84 -264t-105 -45l-18 39q-10 20 -10 28t10 15q76 43 76 170q0 18 -21 18h-23q-20 0 -20 21v137q0 20 20 20h154q20 0 21 -20v-119z" />
    <glyph glyph-name="quotesinglbase" unicode="&#x201a;" horiz-adv-x="362" 
d="M281 86q0 -180 -84 -264t-105 -45l-18 39q-10 20 -10 28t10 15q76 43 76 170q0 18 -21 18h-23q-20 0 -20 21v137q0 20 20 20h154q20 0 21 -20v-119z" />
    <glyph glyph-name="quotedblleft" unicode="&#x201c;" horiz-adv-x="645" 
d="M299 1294q0 -8 -10 -14q-76 -43 -76 -170q0 -18 20 -18h23q20 0 20 -21v-137q0 -20 -20 -21h-154q-20 0 -20 21v119q0 180 86 266q56 55 76 55t26 -12l19 -39q10 -21 10 -29zM582 1294q0 -8 -11 -14q-76 -43 -75 -170q0 -18 20 -18h23q20 0 20 -21v-137q0 -20 -20 -21
h-154q-20 0 -20 21v119q0 180 86 266q55 55 75 55t27 -12l18 -39q11 -21 11 -29z" />
    <glyph glyph-name="quotedblright" unicode="&#x201d;" horiz-adv-x="645" 
d="M281 1151q0 -180 -84 -264t-105 -45l-18 39q-10 20 -10 28t10 15q76 43 76 170q0 18 -21 18h-23q-20 0 -20 21v137q0 20 20 20h154q20 0 21 -20v-119zM563 1151q0 -180 -85 -265t-103 -44l-19 39q-10 20 -10 28t10 15q76 43 76 170q0 18 -20 18h-23q-20 0 -20 21v137
q0 20 20 20h154q20 0 20 -20v-119z" />
    <glyph glyph-name="quotedblbase" unicode="&#x201e;" horiz-adv-x="645" 
d="M281 86q0 -180 -84 -264t-105 -45l-18 39q-10 20 -10 28t10 15q76 43 76 170q0 18 -21 18h-23q-20 0 -20 21v137q0 20 20 20h154q20 0 21 -20v-119zM563 86q0 -180 -85 -265t-103 -44l-19 39q-10 20 -10 28t10 15q76 43 76 170q0 18 -20 18h-23q-20 0 -20 21v137
q0 20 20 20h154q20 0 20 -20v-119z" />
    <glyph glyph-name="dagger" unicode="&#x2020;" horiz-adv-x="839" 
d="M821 936v-133q0 -20 -20 -21q-12 0 -51 4t-52 5l-125 10q-74 6 -79 6q-18 0 -19 -16l6 -46l15 -94l-39 -1091q0 -20 -21 -21h-49q-20 0 -20 21l-39 1091l14 94q6 43 6 46q0 16 -18 16q-6 0 -80 -6l-152 -13q-74 -6 -78 -6q-20 0 -20 21v133q0 20 20 20l314 -26
q18 0 18 20t-4 54l-14 184q-6 80 -6 82q0 20 20 20h127q20 0 21 -20q0 -15 -3 -42t-4 -40l-14 -182q-4 -40 -4 -58t18 -18l312 26q20 0 20 -20z" />
    <glyph glyph-name="daggerdbl" unicode="&#x2021;" horiz-adv-x="839" 
d="M821 502v-133q0 -20 -20 -21l-103 8l-96 9q-86 8 -103 8t-18 -17l-24 -796q0 -20 -21 -21h-49q-20 0 -20 21l-25 796q0 16 -18 17l-201 -17q-83 -8 -103 -8t-20 21v133q0 20 19 20t98 -8l106 -10q74 -8 94 -8t21 18q0 20 -4 57l-6 82l14 90q6 31 6 47t-18 17l-207 -16
q-82 -8 -103 -9q-20 0 -20 21v133q0 20 19 20t98 -8l116 -10q75 -8 97 -8t22 18l-24 322q0 20 20 20h127q20 0 21 -20q0 -10 -3 -38t-4 -44l-18 -240q0 -18 18 -18l312 26q20 0 20 -20v-133q0 -20 -20 -21q-8 0 -47 4t-56 5l-100 8q-86 8 -104 8t-19 -16l6 -46l15 -90
l-7 -84q-4 -41 -4 -58q-1 -17 19 -17t90 8l207 18q20 0 20 -20z" />
    <glyph glyph-name="bullet" unicode="&#x2022;" horiz-adv-x="1024" 
d="M823 625q0 -129 -84 -208t-223 -79h-8q-139 0 -223 79t-84 208v41q0 130 84 208t223 78h8q139 0 223 -79t84 -207v-41z" />
    <glyph glyph-name="ellipsis" unicode="&#x2026;" horiz-adv-x="940" 
d="M883 190q0 -31 -58 -96q-96 -115 -282 -114h-62q-170 0 -269 98t-99 266v62q0 59 39 132t90 109q10 9 10 19t-10 14q-51 36 -90 104t-39 127v31q0 168 99 268t269 101h62q203 0 303 -142q37 -51 37 -63t-13 -19l-108 -55q-25 -12 -34 -12t-15 12q-55 115 -170 115h-62
q-76 0 -130 -54t-54 -130v-31q0 -76 54 -130t130 -54h164q20 0 21 -21v-123q0 -20 -21 -20h-164q-76 0 -130 -54t-54 -131v-71q0 -76 54 -130t130 -55h62q51 0 98 31t72 86q6 14 13 14t32 -12l112 -57q13 -7 13 -15z" />
    <glyph glyph-name="perthousand" unicode="&#x2030;" horiz-adv-x="1519" 
d="M825 184v201q0 25 -16 42t-41 17t-41 -17t-16 -42v-201q0 -25 16 -41t41 -16t41 16t16 41zM336 905v201q0 23 -18 41t-43 18q-23 0 -39 -17t-17 -42v-201q1 -25 17 -41t40 -16t42 17t18 40zM1315 184v201q-1 25 -17 42t-41 17t-41 -17t-16 -42v-201q0 -25 16 -41t42 -16
q24 0 40 16t17 41zM963 184q1 -82 -53 -133t-142 -51t-141 51t-54 133v201q-1 82 53 133t142 51t141 -51t54 -133v-201zM850 1274q0 -6 -25 -66l-512 -1196q-6 -12 -18 -12h-80q-20 0 -20 16q0 8 16 45l520 1217q6 12 19 12h79q21 0 21 -16zM471 905q0 -82 -52 -133
q-51 -51 -141 -51t-143 51t-53 133v199q0 82 53 134t141 52t142 -51t53 -133v-201zM1452 184q0 -82 -53 -133t-141 -51t-142 51q-53 51 -53 133v201q0 82 53 133t141 51q87 0 141 -51t54 -133v-201z" />
    <glyph glyph-name="guilsinglleft" unicode="&#x2039;" horiz-adv-x="692" 
d="M557 223q0 -23 -16 -22q-8 0 -17 6l-403 287q-8 8 -8 16v121q0 8 8 16l403 289q8 6 17 6q16 0 16 -22v-117q0 -8 -8 -17l-277 -198q-10 -10 -10 -16t10 -17l277 -199q8 -8 8 -16v-117z" />
    <glyph glyph-name="guilsinglright" unicode="&#x203a;" horiz-adv-x="692" 
d="M582 510q0 -8 -9 -16l-405 -287q-8 -6 -16 -6q-16 0 -17 22v117q0 8 8 16l277 199q10 10 10 16t-10 17l-277 198q-8 8 -8 17v117q0 23 17 22q8 0 16 -6l405 -289q8 -8 9 -16v-121z" />
    <glyph glyph-name="fraction" unicode="&#x2044;" horiz-adv-x="331" 
d="M481 1274q0 -4 -12 -37l-524 -1225q-6 -12 -19 -12h-49q-20 0 -20 16q0 8 26 70l510 1192q6 12 19 12h49q20 0 20 -16z" />
    <glyph glyph-name="Euro" unicode="&#x20ac;" 
d="M578 -20q-168 0 -269 96q-100 96 -100 252v51q0 20 -21 20h-122q-20 0 -21 21v102q0 20 21 21h122q20 0 21 20v164q0 20 -21 21h-122q-20 0 -21 20v102q0 20 21 21h122q20 0 21 20v52q0 155 100 251t269 97h61q152 0 244 -76q53 -41 94 -119q10 -18 -10 -29l-131 -65
q-16 -8 -27 10q-57 115 -170 115h-61q-76 0 -130 -54t-55 -130v-52q0 -20 21 -20h286q20 0 21 -21v-102q0 -20 -21 -20h-286q-20 0 -21 -21v-164q0 -20 21 -20h286q20 0 21 -21v-102q0 -20 -21 -21h-286q-20 0 -21 -20v-51q0 -76 54 -130t131 -55h61q113 0 172 119
q8 18 29 8l129 -65q16 -9 8 -27q-96 -198 -338 -198h-61z" />
    <glyph glyph-name="trademark" unicode="&#x2122;" horiz-adv-x="835" 
d="M319 1079q0 -20 -20 -20h-55q-20 0 -21 -21v-280q0 -20 -20 -21h-25q-20 0 -20 21v280q0 20 -21 21h-55q-20 0 -21 20v23q0 20 21 20h217q20 0 20 -20v-23zM754 758q0 -20 -21 -21h-24q-20 0 -21 21v147q0 25 -18 25q-10 0 -21 -15l-51 -84q-6 -10 -18 -10h-9
q-10 0 -16 10l-55 84q-10 14 -21 15q-16 0 -16 -25v-147q0 -20 -21 -21h-24q-20 0 -21 21v344q0 20 21 20h24q12 0 19 -10l96 -166q10 -14 18 -14t19 14l96 166q6 10 19 10h24q20 0 21 -20v-344z" />
    <glyph glyph-name="partialdiff" unicode="&#x2202;" horiz-adv-x="1011" 
d="M332 633q-102 -137 -102 -330t94 -256q41 -29 83 -29q41 0 97 24t104 90q80 109 117 322q13 68 25 158q-17 17 -43 48q-71 83 -183 83t-192 -110zM946 805q0 -123 -30 -278t-76 -258t-91 -161q-44 -58 -129 -104t-180 -47q-166 0 -276 118q-110 119 -111 287
q0 168 114 314t279 147q126 0 216 -61q33 -23 104 -78q40 220 3 407q-19 95 -48 161t-91 118q-62 51 -136 60q-20 2 -76 2t-94 -16t-68 -30q-29 -14 -43 -20l-80 102q307 130 526 -18q115 -78 189 -209q98 -174 98 -436z" />
    <glyph glyph-name="product" unicode="&#x220f;" horiz-adv-x="1685" 
d="M1645 -207h-627v47q102 0 149 34t47 132v1419h-733v-1419q0 -98 48 -132t151 -34v-47h-629v47q102 0 151 34q48 34 48 132v1282q0 203 -195 203v47h1583v-47q-193 0 -192 -203v-1282q0 -98 48 -132t151 -34v-47z" />
    <glyph glyph-name="summation" unicode="&#x2211;" horiz-adv-x="1460" 
d="M246 1526h1018l12 -326h-41q-31 100 -43 125q-59 109 -270 109h-539l559 -734l-602 -694h760q66 0 108 12q70 20 123 116q18 34 45 104h47q-63 -258 -88 -459q-141 23 -157 22h-1031q-18 0 -58 -3t-60 -3l714 815l-710 930q126 -14 213 -14z" />
    <glyph glyph-name="minus" unicode="&#x2212;" 
d="M952 451q0 -20 -20 -21h-819q-20 0 -21 21v81q0 20 21 21h819q20 0 20 -21v-81z" />
    <glyph glyph-name="radical" unicode="&#x221a;" horiz-adv-x="1124" 
d="M1055 1868l-307 -1946l-498 1028l-197 -96l-33 68l299 147l404 -825l260 1634z" />
    <glyph glyph-name="infinity" unicode="&#x221e;" horiz-adv-x="1460" 
d="M340 721q-76 0 -130 -57q-54 -56 -54 -132t59 -128t127 -52t102 18q35 18 46 23q11 3 33 21t29 23t31 25q25 20 27 25q2 4 27 28t27 26q-24 24 -47 41q-23 16 -49 36t-37 28t-35 22q-24 16 -39 22q-16 6 -45 18t-72 13zM1114 352q74 0 134 52t59 127t-55 133t-116 57
q-62 0 -109 -20q-48 -20 -70 -36q-23 -15 -51 -37t-37 -29t-38 -32t-32 -26q117 -115 179 -152t136 -37zM1411 545q0 -115 -82 -203t-194 -88q-184 0 -367 183q-23 24 -37 36q-14 -12 -37 -36q-175 -183 -366 -183q-113 0 -195 88t-82 203t87 199t204 83q72 0 152 -41
q80 -42 118 -74t119 -104q80 72 119 105t119 73t151 41q117 1 204 -83t87 -199z" />
    <glyph glyph-name="integral" unicode="&#x222b;" horiz-adv-x="561" 
d="M246 1157q0 389 53 567q18 60 60 106q41 46 97 46t98 -31t42 -77t-33 -72t-69 -25q-36 0 -63 25q-28 25 -44 24q-37 0 -37 -57q0 -4 20 -260t19 -391v-13l-2 -442q0 -187 -29 -415t-100 -310q-18 -20 -59 -36t-79 -15q-38 0 -77 38t-39 79q0 40 29 68t59 28t66 -34
q35 -34 47 -34q53 0 53 201v25l-12 610v395z" />
    <glyph glyph-name="approxequal" unicode="&#x2248;" horiz-adv-x="1124" 
d="M791 287q-35 0 -76 10l-307 88q-49 14 -104 14q-54 1 -94 -27t-93 -96l-88 56q121 162 295 162q47 0 104 -15l309 -86q25 -6 69 -6t104 31t94 80l75 -49q-45 -76 -123 -119t-165 -43zM791 596q-35 0 -76 10l-307 88q-130 36 -198 -13q-40 -28 -93 -95l-88 55
q121 162 295 162q47 0 104 -15l309 -86q25 -6 69 -6t104 31t94 80l75 -49q-45 -76 -123 -119t-165 -43z" />
    <glyph glyph-name="notequal" unicode="&#x2260;" horiz-adv-x="1124" 
d="M1106 279h-621l-184 -330l-100 57l151 273h-321v112h385l157 285h-542v112h606l186 336l101 -57l-156 -279h338v-112h-399l-160 -285h559v-112z" />
    <glyph glyph-name="lessequal" unicode="&#x2264;" horiz-adv-x="1124" 
d="M1077 0h-1018v113h1018v-113zM1077 240l-1018 471v127l1018 471v-127l-887 -408l887 -407v-127z" />
    <glyph glyph-name="greaterequal" unicode="&#x2265;" horiz-adv-x="1124" 
d="M1077 0h-1018v113h1018v-113zM1077 711l-1018 -471v127l887 407l-887 408v127l1018 -471v-127z" />
    <glyph glyph-name="lozenge" unicode="&#x25ca;" horiz-adv-x="1011" 
d="M831 772l-335 643l-336 -643l336 -661zM954 772l-397 -772h-123l-397 772l397 754h123z" />
    <glyph glyph-name="apple" unicode="&#xf8ff;" horiz-adv-x="1617" 
d="M1096 -4q-52 0 -132 33q-81 33 -126 33t-125 -34t-125 -34q-207 0 -389 393q-84 182 -84 389q0 43 6 84q76 410 446 410q51 0 79 -7t88 -33t104 -26t103 26q60 26 88 33t81 7q166 0 270 -82q23 -16 78 -78q-53 -39 -82 -67t-55 -72q-53 -90 -53 -212t90 -220
q10 -13 17 -21t19 -17t16 -13q6 -4 20 -13q14 -7 26 -15t45 -24q-2 -2 -17 -37q-14 -35 -18 -40t-19 -37t-21 -39q-6 -8 -19 -35q-15 -27 -23 -38t-22 -34t-38 -51t-54 -53q-29 -25 -33 -29t-15 -13q-10 -10 -18 -12t-32 -12t-76 -10zM1159 1593q0 -131 -74 -204
q-57 -61 -139 -109q-20 -12 -115 -18q-2 12 -2 40t26 96t58 109q96 123 246 148v-62z" />
    <glyph glyph-name="fi" unicode="&#xfb01;" horiz-adv-x="1013" 
d="M532 686q0 -20 -20 -20h-143q-20 0 -21 -21v-625q0 -20 -20 -20h-144q-20 0 -20 20v625q0 20 -21 21h-51q-20 0 -20 20v123q0 20 20 20h51q20 0 21 21v92q0 111 58 199t148 128t144 40q18 0 18 -21v-123q0 -16 -16 -20q-76 -11 -122 -63t-46 -119v-113q0 -20 21 -21h143
q20 0 20 -20v-123zM881 20q0 -20 -21 -20h-143q-20 0 -21 20v881q0 20 21 21h143q20 0 21 -21v-881zM901 1198q0 -47 -33 -80t-80 -33q-48 0 -80 33t-32 80t33 80t79 33t80 -33q33 -33 33 -80z" />
    <glyph glyph-name="fl" unicode="&#xfb02;" horiz-adv-x="1019" 
d="M887 20q0 -20 -21 -20h-143q-20 0 -21 20v1086q0 20 -20 20h-150q-76 0 -130 -54t-54 -130v-92q0 -20 21 -21h143q20 0 20 -20v-123q0 -20 -20 -20h-143q-20 0 -21 -21v-625q0 -20 -20 -20h-144q-20 0 -20 20v625q0 20 -21 21h-51q-20 0 -20 20v123q0 20 20 20h51
q20 0 21 21v72q0 154 108 262t260 106h334q20 0 21 -20v-1250z" />
    </font>
</defs>
</svg>
